<svg width="1920" height="1080" viewBox="0 0 1920 1080" fill="none" xmlns="http://www.w3.org/2000/svg">
<g clip-path="url(#clip0_44_280)">
<rect width="1920" height="1080" fill="white"/>
<path fill-rule="evenodd" clip-rule="evenodd" d="M398.539 143.002C566.521 142.56 726.921 204.82 863.432 302.451C1000.61 400.56 1125.34 528.516 1166.04 691.906C1205.43 850.065 1129.97 1006.31 1077.14 1160.52C1025.22 1312.11 991.438 1481.98 862.626 1577.68C733.228 1673.81 559.692 1672.67 398.539 1664.67C244.501 1657.02 90.5231 1625.11 -33.1457 1533.2C-155.848 1442.01 -225.809 1303.23 -279.892 1160.47C-336.49 1011.06 -388.435 853.138 -349.45 698.229C-308.98 537.421 -197.933 403.882 -64.5761 304.892C69.939 205.043 230.857 143.443 398.539 143.002Z" fill="#FFB600" fill-opacity="0.26"/>
<path fill-rule="evenodd" clip-rule="evenodd" d="M2107.89 124.787C2086.46 179.636 2045.5 223.937 1996.03 255.891C1946.32 288.002 1888.44 312.209 1829.76 304.441C1772.96 296.921 1731.53 252.186 1687.85 215.096C1644.92 178.637 1593.68 145.744 1578.91 91.4042C1564.07 36.8173 1586.73 -19.6392 1610.04 -71.1734C1632.31 -120.432 1662.52 -166.547 1708.47 -195.049C1754.06 -223.328 1808.45 -228.277 1862.1 -227.532C1918.25 -226.752 1976.59 -223.358 2022.26 -190.693C2069.68 -156.784 2099.11 -103.365 2114.38 -47.119C2129.78 9.6155 2129.27 70.0361 2107.89 124.787Z" fill="#FFB600" fill-opacity="0.26"/>
<g clip-path="url(#clip1_44_280)">
<path d="M177.03 151.213C175.517 145.685 172.889 140.523 169.305 136.043C165.722 131.562 161.259 127.857 156.189 125.155C151.12 122.453 145.55 120.81 139.822 120.326C134.093 119.843 128.326 120.53 122.873 122.344C122.403 122.487 121.966 122.723 121.589 123.037C121.211 123.351 120.901 123.738 120.676 124.173C120.451 124.609 120.316 125.085 120.278 125.574C120.241 126.062 120.302 126.553 120.459 127.018C120.615 127.483 120.863 127.911 121.188 128.279C121.514 128.646 121.91 128.945 122.353 129.157C122.796 129.37 123.277 129.491 123.768 129.515C124.259 129.539 124.75 129.465 125.212 129.297C129.714 127.801 134.476 127.237 139.204 127.637C143.933 128.037 148.531 129.394 152.716 131.625C156.901 133.856 160.585 136.914 163.545 140.612C166.504 144.309 168.676 148.57 169.928 153.132C170.139 153.91 170.601 154.596 171.242 155.086C171.884 155.576 172.669 155.842 173.477 155.842C173.803 155.842 174.127 155.8 174.442 155.716C174.909 155.59 175.346 155.373 175.729 155.079C176.111 154.784 176.432 154.417 176.673 153.999C176.913 153.581 177.068 153.12 177.13 152.642C177.191 152.163 177.157 151.678 177.03 151.213Z" fill="#FFB600"/>
<path d="M117.386 220.968H117.598C118.572 220.912 119.483 220.474 120.133 219.749C120.782 219.024 121.116 218.071 121.062 217.101C120.378 204.799 115.986 192.989 108.46 183.216C108.427 183.167 108.39 183.122 108.353 183.077V183.057C105.226 178.877 103.08 174.049 102.076 168.932C101.072 163.815 101.234 158.538 102.551 153.491C102.674 153.025 102.703 152.539 102.637 152.062C102.571 151.585 102.411 151.125 102.167 150.709C101.923 150.293 101.599 149.929 101.214 149.638C100.829 149.347 100.39 149.134 99.922 149.012C99.4543 148.89 98.9671 148.861 98.4881 148.927C98.0092 148.993 97.5479 149.152 97.1306 149.395C96.7134 149.638 96.3482 149.961 96.0562 150.345C95.7641 150.729 95.5507 151.167 95.4283 151.633C93.8344 157.738 93.6355 164.123 94.8463 170.315C96.0572 176.508 98.6468 182.351 102.424 187.413L102.453 187.45L102.588 187.629C109.232 196.244 113.11 206.659 113.714 217.508C113.767 218.443 114.177 219.322 114.86 219.966C115.542 220.609 116.446 220.968 117.386 220.968Z" fill="#FFB600"/>
<path d="M153.229 229.522C142.012 231.808 130.447 231.8 119.234 229.497C118.761 229.399 118.272 229.395 117.797 229.485C117.322 229.574 116.87 229.757 116.466 230.021C116.061 230.285 115.713 230.626 115.441 231.024C115.169 231.422 114.978 231.87 114.879 232.342C114.781 232.814 114.776 233.3 114.867 233.774C114.957 234.247 115.139 234.698 115.404 235.101C115.669 235.504 116.012 235.851 116.411 236.122C116.811 236.394 117.26 236.584 117.733 236.682C129.933 239.196 142.519 239.203 154.721 236.702C155.205 236.615 155.666 236.433 156.077 236.165C156.489 235.898 156.842 235.551 157.117 235.146C157.392 234.74 157.583 234.283 157.678 233.803C157.773 233.323 157.771 232.828 157.671 232.349C157.571 231.87 157.376 231.415 157.098 231.012C156.819 230.609 156.462 230.265 156.048 230.002C155.634 229.738 155.171 229.56 154.687 229.478C154.203 229.395 153.707 229.41 153.229 229.522Z" fill="#FFB600"/>
<path d="M146.221 246.654C139.63 248.003 132.833 248.003 126.242 246.654C125.766 246.548 125.274 246.538 124.794 246.623C124.314 246.708 123.855 246.888 123.446 247.151C123.036 247.415 122.682 247.757 122.406 248.158C122.13 248.558 121.937 249.01 121.838 249.486C121.738 249.962 121.735 250.452 121.827 250.93C121.92 251.407 122.107 251.861 122.377 252.266C122.647 252.67 122.995 253.017 123.401 253.287C123.807 253.556 124.263 253.742 124.742 253.835C132.319 255.394 140.136 255.394 147.713 253.835C148.669 253.637 149.507 253.07 150.043 252.257C150.579 251.443 150.769 250.451 150.571 249.499C150.373 248.546 149.804 247.71 148.988 247.176C148.172 246.642 147.176 246.453 146.221 246.65V246.654Z" fill="#FFB600"/>
<path d="M125.809 134.769C127.567 136.4 127.682 140.067 127.751 143.767C127.682 147.435 127.567 151.144 125.809 152.77C124.173 154.526 120.493 154.64 116.777 154.705C113.097 154.64 109.38 154.526 107.744 152.77C105.982 151.14 105.867 147.472 105.802 143.767C105.867 140.1 105.982 136.395 107.744 134.769C109.38 133.013 113.06 132.899 116.777 132.834C120.477 132.899 124.173 133.009 125.809 134.769Z" fill="#202124"/>
<path d="M109.838 104.756C110.905 105.742 110.987 107.967 111.011 110.188C110.987 112.425 110.905 114.671 109.838 115.637C108.852 116.696 106.616 116.765 104.379 116.806C102.147 116.765 99.9099 116.696 98.9245 115.637C97.8573 114.671 97.7878 112.425 97.751 110.188C97.7878 107.959 97.8573 105.734 98.9245 104.748C99.9099 103.688 102.147 103.619 104.379 103.578C106.616 103.627 108.852 103.696 109.838 104.756Z" fill="#202124"/>
<path d="M96.0908 133.107C97.1539 134.089 97.2234 136.318 97.2643 138.547C97.2234 140.777 97.1539 143.002 96.0908 143.988C95.1013 145.047 92.8688 145.117 90.6322 145.157C88.3955 145.117 86.1589 145.047 85.1735 143.988C84.1104 143.002 84.0409 140.777 84 138.547C84.0409 136.318 84.1104 134.089 85.1735 133.107C86.1589 132.048 88.3955 131.978 90.6322 131.938C92.8688 131.978 95.1013 132.048 96.0908 133.107Z" fill="#202124"/>
<path d="M113.096 121.664C113.714 122.234 113.755 123.526 113.779 124.818C113.804 126.11 113.714 127.402 113.096 127.972C112.479 128.543 111.228 128.628 109.932 128.653C108.635 128.677 107.339 128.588 106.767 127.972C106.194 127.357 106.113 126.11 106.08 124.818C106.047 123.526 106.141 122.234 106.759 121.664C107.376 121.093 108.627 121.012 109.923 120.987C111.22 120.963 112.524 121.048 113.096 121.664Z" fill="#202124"/>
<path d="M95.1586 120.291C95.776 120.861 95.8128 122.153 95.8373 123.445C95.8618 124.737 95.776 126.028 95.1586 126.599C94.5411 127.169 93.2899 127.255 91.9938 127.275C90.6976 127.296 89.4014 127.214 88.829 126.599C88.2565 125.984 88.1707 124.737 88.1461 123.445C88.1216 122.153 88.2115 120.861 88.829 120.291C89.4464 119.72 90.6976 119.634 91.9938 119.614C93.2899 119.594 94.5861 119.675 95.1586 120.291Z" fill="#202124"/>
<path d="M125.261 109.642C125.878 110.213 125.919 111.504 125.944 112.796C125.968 114.088 125.878 115.38 125.261 115.95C124.644 116.521 123.392 116.607 122.096 116.631C120.8 116.655 119.504 116.566 118.931 115.95C118.359 115.335 118.277 114.088 118.253 112.796C118.228 111.504 118.314 110.213 118.931 109.642C119.549 109.071 120.8 108.99 122.096 108.966C123.392 108.941 124.689 109.027 125.261 109.642Z" fill="#202124"/>
<path d="M93.9317 100.676C94.5492 101.247 94.586 102.539 94.6309 103.831C94.6759 105.122 94.5696 106.414 93.9522 106.985C93.3348 107.555 92.0836 107.641 90.7874 107.665C89.4912 107.69 88.195 107.6 87.6226 106.985C87.0502 106.369 86.9438 105.122 86.9193 103.831C86.8948 102.539 86.9847 101.247 87.6022 100.676C88.2196 100.106 89.4708 100.024 90.767 100C92.0631 99.9755 93.3593 100.061 93.9317 100.676Z" fill="#202124"/>
<path d="M176.368 175.065C173.612 172.87 170.057 171.773 165.704 171.773C161.292 171.731 156.955 172.915 153.18 175.192C152.717 175.468 152.334 175.858 152.068 176.325C151.801 176.792 151.66 177.32 151.659 177.857C151.658 178.494 151.859 179.114 152.235 179.63C152.679 180.242 153.333 180.671 154.073 180.835C154.813 181 155.588 180.888 156.251 180.522C159.121 178.982 161.901 178.211 164.592 178.211C170.044 178.211 172.77 180.656 172.77 185.547V186.932H162.719C158.131 186.932 154.496 187.832 151.814 189.63C149.132 191.429 147.789 194.145 147.787 197.78C147.787 201.407 149.047 204.303 151.569 206.469C154.09 208.634 157.274 209.721 161.12 209.729C166.259 209.729 170.356 207.906 173.412 204.26V206.102C173.412 206.506 173.492 206.906 173.647 207.279C173.802 207.652 174.029 207.991 174.316 208.276C174.603 208.562 174.943 208.788 175.318 208.942C175.692 209.096 176.094 209.175 176.499 209.175H177.415C177.82 209.175 178.221 209.096 178.596 208.942C178.97 208.788 179.311 208.562 179.597 208.276C179.884 207.991 180.112 207.652 180.267 207.279C180.422 206.906 180.502 206.506 180.502 206.102V185.412C180.499 180.707 179.121 177.258 176.368 175.065ZM172.721 195.441C172.755 196.532 172.519 197.614 172.034 198.592C171.549 199.57 170.83 200.413 169.94 201.049C168.065 202.438 165.779 203.168 163.443 203.123C160.965 203.123 159.032 202.65 157.645 201.705C156.971 201.255 156.424 200.64 156.059 199.918C155.693 199.196 155.521 198.392 155.56 197.585C155.56 194.075 158.362 192.321 163.966 192.324H172.729L172.721 195.441Z" fill="#202124"/>
<path d="M222.703 157.786H221.092C220.274 157.786 219.489 158.11 218.911 158.686C218.332 159.262 218.006 160.044 218.005 160.859V178.003C214.99 173.852 211.018 171.775 206.09 171.772C203.73 171.741 201.388 172.177 199.199 173.057C197.01 173.936 195.019 175.241 193.341 176.895C189.778 180.315 187.997 184.885 187.997 190.604C187.997 196.323 189.733 200.941 193.206 204.46C196.681 207.97 200.757 209.723 205.432 209.721C210.943 209.721 215.135 207.683 218.005 203.608V206.053C218.005 206.457 218.085 206.857 218.24 207.23C218.395 207.603 218.623 207.942 218.909 208.227C219.196 208.513 219.536 208.739 219.911 208.893C220.285 209.047 220.687 209.126 221.092 209.126H222.703C223.108 209.126 223.509 209.047 223.883 208.893C224.258 208.739 224.598 208.512 224.884 208.227C225.171 207.941 225.398 207.603 225.552 207.229C225.707 206.856 225.787 206.457 225.786 206.053V160.818C225.775 160.01 225.446 159.239 224.869 158.672C224.292 158.104 223.514 157.786 222.703 157.786ZM214.934 199.504C213.951 200.579 212.75 201.434 211.411 202.013C210.072 202.592 208.625 202.881 207.165 202.862C205.677 202.872 204.202 202.583 202.829 202.011C201.456 201.439 200.213 200.596 199.176 199.533C196.908 197.318 195.772 194.447 195.77 190.918C195.767 187.389 196.88 184.446 199.11 182.091C200.112 180.97 201.343 180.075 202.72 179.465C204.097 178.856 205.589 178.547 207.096 178.558C208.583 178.539 210.057 178.846 211.413 179.456C212.768 180.067 213.973 180.966 214.942 182.091C217.071 184.444 218.138 187.374 218.144 190.881C218.149 194.388 217.084 197.263 214.946 199.504H214.934Z" fill="#202124"/>
<path d="M261.867 175.065C259.111 172.87 255.556 171.772 251.203 171.772C246.792 171.729 242.456 172.913 238.683 175.191C238.22 175.467 237.836 175.857 237.569 176.324C237.303 176.791 237.162 177.319 237.161 177.857C237.161 178.493 237.361 179.113 237.734 179.629C238.179 180.242 238.833 180.671 239.574 180.836C240.314 181 241.09 180.888 241.753 180.522C244.618 178.981 247.397 178.211 250.091 178.211C255.542 178.211 258.275 180.656 258.289 185.547V186.932H248.218C243.63 186.932 239.994 187.831 237.309 189.63C234.624 191.428 233.281 194.145 233.281 197.78C233.281 201.407 234.543 204.303 237.067 206.469C239.592 208.634 242.774 209.721 246.615 209.729C251.764 209.729 255.864 207.906 258.914 204.26V206.102C258.914 206.916 259.239 207.697 259.816 208.273C260.393 208.849 261.176 209.173 261.993 209.175H262.917C263.322 209.175 263.723 209.096 264.097 208.942C264.471 208.787 264.811 208.561 265.097 208.275C265.383 207.99 265.61 207.651 265.764 207.278C265.919 206.905 265.997 206.505 265.996 206.102V185.412C265.996 180.707 264.62 177.258 261.867 175.065ZM258.223 195.441C258.257 196.531 258.021 197.613 257.536 198.591C257.051 199.569 256.332 200.413 255.443 201.049C253.567 202.438 251.282 203.168 248.946 203.123C246.468 203.123 244.534 202.65 243.144 201.705C242.47 201.255 241.924 200.639 241.559 199.918C241.194 199.196 241.023 198.392 241.062 197.585C241.062 194.075 243.865 192.321 249.469 192.324H258.223V195.441Z" fill="#202124"/>
<path d="M283.292 158.063C282.488 157.284 281.438 156.805 280.32 156.709C279.202 156.613 278.086 156.906 277.159 157.536C276.233 158.167 275.554 159.098 275.238 160.171C274.922 161.244 274.988 162.393 275.424 163.423C275.861 164.453 276.642 165.301 277.634 165.822C278.626 166.344 279.769 166.508 280.869 166.286C281.968 166.063 282.957 165.469 283.667 164.603C284.377 163.738 284.765 162.654 284.764 161.535C284.77 160.887 284.643 160.244 284.39 159.647C284.137 159.05 283.763 158.511 283.292 158.063ZM280.553 172.327H278.942C278.537 172.325 278.136 172.404 277.762 172.558C277.387 172.712 277.047 172.938 276.761 173.223C276.474 173.508 276.247 173.846 276.092 174.219C275.938 174.592 275.858 174.992 275.859 175.395V206.081C275.858 206.485 275.938 206.885 276.092 207.258C276.247 207.631 276.474 207.97 276.76 208.255C277.047 208.541 277.387 208.767 277.761 208.921C278.136 209.076 278.537 209.155 278.942 209.154H280.553C280.958 209.155 281.359 209.076 281.733 208.921C282.107 208.767 282.447 208.541 282.734 208.255C283.02 207.97 283.247 207.631 283.402 207.258C283.557 206.885 283.636 206.485 283.636 206.081V175.391C283.635 174.988 283.555 174.59 283.4 174.218C283.244 173.846 283.017 173.508 282.731 173.224C282.444 172.94 282.105 172.714 281.731 172.561C281.357 172.408 280.957 172.33 280.553 172.331V172.327Z" fill="#202124"/>
<path d="M326.254 157.786H324.643C323.825 157.786 323.041 158.11 322.463 158.686C321.885 159.263 321.56 160.044 321.56 160.859V178.003C318.562 173.852 314.591 171.775 309.649 171.772C307.289 171.74 304.946 172.176 302.758 173.055C300.569 173.935 298.577 175.24 296.9 176.895C293.332 180.315 291.549 184.885 291.552 190.604C291.554 196.323 293.29 200.941 296.757 204.46C300.232 207.97 304.309 209.723 308.987 209.721C314.496 209.721 318.687 207.683 321.56 203.608V206.053C321.56 206.457 321.639 206.856 321.794 207.229C321.948 207.603 322.176 207.941 322.462 208.227C322.748 208.512 323.088 208.739 323.463 208.893C323.837 209.047 324.238 209.126 324.643 209.126H326.254C326.659 209.126 327.06 209.047 327.435 208.893C327.809 208.739 328.149 208.512 328.435 208.227C328.722 207.941 328.949 207.603 329.104 207.229C329.258 206.856 329.338 206.457 329.337 206.053V160.818C329.326 160.01 328.997 159.239 328.42 158.672C327.843 158.104 327.065 157.786 326.254 157.786ZM318.485 199.504C317.501 200.578 316.3 201.433 314.961 202.011C313.622 202.59 312.176 202.88 310.716 202.862C309.228 202.873 307.752 202.584 306.378 202.012C305.004 201.439 303.761 200.596 302.723 199.533C300.452 197.318 299.319 194.447 299.325 190.918C299.33 187.389 300.441 184.446 302.657 182.091C303.659 180.97 304.89 180.075 306.267 179.465C307.644 178.856 309.136 178.547 310.643 178.558C312.132 178.539 313.606 178.845 314.963 179.456C316.32 180.066 317.527 180.966 318.498 182.091C320.624 184.444 321.688 187.374 321.691 190.881C321.694 194.388 320.632 197.263 318.506 199.504H318.485Z" fill="#202124"/>
<path d="M368.721 176.308C365.202 173.29 360.932 171.778 355.911 171.773C351.046 171.716 346.352 173.554 342.826 176.895C339.122 180.315 337.27 184.919 337.27 190.706C337.27 196.493 339.086 201.111 342.72 204.562C346.356 208.001 350.768 209.721 355.956 209.721C361.059 209.721 365.394 208.41 368.962 205.788C369.307 205.53 369.594 205.203 369.803 204.827C370.013 204.452 370.141 204.037 370.18 203.609C370.219 203.181 370.166 202.75 370.027 202.343C369.888 201.936 369.664 201.564 369.371 201.248L369.101 200.951C368.586 200.402 367.884 200.065 367.133 200.005C366.381 199.944 365.634 200.165 365.037 200.625C362.807 202.255 359.959 203.07 356.491 203.07C353.705 203.11 350.981 202.252 348.722 200.625C347.651 199.9 346.761 198.939 346.123 197.816C345.485 196.693 345.115 195.438 345.042 194.149H370.925C371.742 194.148 372.526 193.824 373.104 193.248C373.682 192.672 374.007 191.891 374.008 191.077V188.815C374.003 183.501 372.24 179.332 368.721 176.308ZM345.034 188.045C345.034 185.092 346.168 182.75 348.436 181.019C350.625 179.311 353.331 178.394 356.111 178.419C358.732 178.343 361.29 179.229 363.299 180.909C365.246 182.577 366.219 184.956 366.219 188.045H345.034Z" fill="#202124"/>
</g>
<path d="M226.207 498.89L200.892 596H172.257L156.763 532.09L140.717 596H112.082L87.4583 498.89H112.773L126.745 569.578L144.037 498.89H170.043L186.643 569.578L200.753 498.89H226.207ZM312.217 556.16C312.217 558.373 312.078 560.679 311.802 563.077H258.267C258.635 567.872 260.157 571.561 262.832 574.143C265.598 576.633 268.964 577.878 272.93 577.878C278.832 577.878 282.936 575.388 285.242 570.408H310.418C309.127 575.481 306.775 580.046 303.363 584.103C300.043 588.161 295.847 591.343 290.775 593.648C285.703 595.954 280.031 597.107 273.76 597.107C266.198 597.107 259.465 595.493 253.563 592.265C247.661 589.037 243.05 584.426 239.73 578.432C236.41 572.437 234.75 565.428 234.75 557.405C234.75 549.382 236.364 542.373 239.592 536.378C242.912 530.384 247.523 525.773 253.425 522.545C259.327 519.317 266.105 517.703 273.76 517.703C281.23 517.703 287.87 519.271 293.68 522.407C299.49 525.542 304.009 530.015 307.237 535.825C310.557 541.635 312.217 548.413 312.217 556.16ZM288.008 549.935C288.008 545.877 286.625 542.649 283.858 540.252C281.092 537.854 277.633 536.655 273.483 536.655C269.518 536.655 266.152 537.808 263.385 540.113C260.71 542.419 259.05 545.693 258.405 549.935H288.008ZM349.734 529.738C351.947 526.142 355.129 523.237 359.279 521.023C363.429 518.81 368.178 517.703 373.527 517.703C379.891 517.703 385.655 519.317 390.819 522.545C395.983 525.773 400.041 530.384 402.992 536.378C406.036 542.373 407.557 549.336 407.557 557.267C407.557 565.198 406.036 572.207 402.992 578.293C400.041 584.288 395.983 588.945 390.819 592.265C385.655 595.493 379.891 597.107 373.527 597.107C368.086 597.107 363.337 596.046 359.279 593.925C355.221 591.712 352.04 588.807 349.734 585.21V596H326.079V493.633H349.734V529.738ZM383.487 557.267C383.487 551.364 381.827 546.753 378.507 543.433C375.28 540.021 371.268 538.315 366.472 538.315C361.769 538.315 357.757 540.021 354.437 543.433C351.21 546.846 349.596 551.503 349.596 557.405C349.596 563.307 351.21 567.964 354.437 571.377C357.757 574.789 361.769 576.495 366.472 576.495C371.176 576.495 375.187 574.789 378.507 571.377C381.827 567.872 383.487 563.169 383.487 557.267ZM452.752 597.107C446.02 597.107 440.026 595.954 434.769 593.648C429.512 591.343 425.362 588.207 422.319 584.242C419.276 580.184 417.57 575.665 417.201 570.685H440.579C440.856 573.359 442.101 575.527 444.314 577.187C446.527 578.847 449.248 579.677 452.476 579.677C455.427 579.677 457.686 579.123 459.254 578.017C460.914 576.818 461.744 575.296 461.744 573.452C461.744 571.238 460.591 569.624 458.286 568.61C455.98 567.503 452.245 566.304 447.081 565.013C441.547 563.722 436.936 562.385 433.247 561.002C429.558 559.526 426.377 557.267 423.702 554.223C421.028 551.088 419.691 546.892 419.691 541.635C419.691 537.208 420.89 533.197 423.287 529.6C425.777 525.911 429.374 523.006 434.077 520.885C438.873 518.764 444.545 517.703 451.092 517.703C460.776 517.703 468.384 520.101 473.917 524.897C479.543 529.692 482.771 536.056 483.601 543.987H461.744C461.375 541.312 460.176 539.191 458.147 537.623C456.211 536.056 453.628 535.272 450.401 535.272C447.634 535.272 445.513 535.825 444.037 536.932C442.562 537.946 441.824 539.376 441.824 541.22C441.824 543.433 442.977 545.093 445.282 546.2C447.68 547.307 451.369 548.413 456.349 549.52C462.067 550.996 466.724 552.471 470.321 553.947C473.917 555.33 477.053 557.636 479.727 560.863C482.494 563.999 483.923 568.241 484.016 573.59C484.016 578.109 482.725 582.167 480.142 585.763C477.652 589.268 474.01 592.034 469.214 594.063C464.511 596.092 459.023 597.107 452.752 597.107ZM511.768 510.787C507.618 510.787 504.206 509.588 501.531 507.19C498.949 504.7 497.658 501.657 497.658 498.06C497.658 494.371 498.949 491.328 501.531 488.93C504.206 486.44 507.618 485.195 511.768 485.195C515.826 485.195 519.146 486.44 521.728 488.93C524.402 491.328 525.739 494.371 525.739 498.06C525.739 501.657 524.402 504.7 521.728 507.19C519.146 509.588 515.826 510.787 511.768 510.787ZM523.526 518.81V596H499.871V518.81H523.526ZM585.074 575.942V596H573.039C564.462 596 557.776 593.925 552.98 589.775C548.185 585.533 545.787 578.662 545.787 569.163V538.453H536.38V518.81H545.787V499.997H569.442V518.81H584.935V538.453H569.442V569.44C569.442 571.746 569.995 573.406 571.102 574.42C572.209 575.434 574.053 575.942 576.635 575.942H585.074ZM672.397 556.16C672.397 558.373 672.258 560.679 671.982 563.077H618.447C618.815 567.872 620.337 571.561 623.012 574.143C625.778 576.633 629.144 577.878 633.11 577.878C639.012 577.878 643.116 575.388 645.422 570.408H670.598C669.307 575.481 666.955 580.046 663.543 584.103C660.223 588.161 656.027 591.343 650.955 593.648C645.883 595.954 640.211 597.107 633.94 597.107C626.378 597.107 619.645 595.493 613.743 592.265C607.841 589.037 603.23 584.426 599.91 578.432C596.59 572.437 594.93 565.428 594.93 557.405C594.93 549.382 596.544 542.373 599.772 536.378C603.092 530.384 607.703 525.773 613.605 522.545C619.507 519.317 626.285 517.703 633.94 517.703C641.41 517.703 648.05 519.271 653.86 522.407C659.67 525.542 664.189 530.015 667.417 535.825C670.737 541.635 672.397 548.413 672.397 556.16ZM648.188 549.935C648.188 545.877 646.805 542.649 644.038 540.252C641.272 537.854 637.813 536.655 633.663 536.655C629.698 536.655 626.332 537.808 623.565 540.113C620.89 542.419 619.23 545.693 618.585 549.935H648.188ZM128.958 636.89C139.195 636.89 148.141 638.919 155.795 642.977C163.449 647.034 169.352 652.752 173.502 660.13C177.744 667.416 179.865 675.854 179.865 685.445C179.865 694.944 177.744 703.382 173.502 710.76C169.352 718.138 163.403 723.856 155.657 727.913C148.002 731.971 139.103 734 128.958 734H92.5767V636.89H128.958ZM127.437 713.527C136.382 713.527 143.345 711.083 148.325 706.195C153.305 701.307 155.795 694.391 155.795 685.445C155.795 676.499 153.305 669.537 148.325 664.557C143.345 659.577 136.382 657.087 127.437 657.087H116.232V713.527H127.437ZM229.604 735.107C222.042 735.107 215.218 733.493 209.131 730.265C203.137 727.037 198.387 722.426 194.883 716.432C191.471 710.437 189.764 703.428 189.764 695.405C189.764 687.474 191.517 680.511 195.021 674.517C198.526 668.43 203.321 663.773 209.408 660.545C215.494 657.317 222.319 655.703 229.881 655.703C237.443 655.703 244.268 657.317 250.354 660.545C256.441 663.773 261.237 668.43 264.741 674.517C268.246 680.511 269.998 687.474 269.998 695.405C269.998 703.336 268.199 710.345 264.603 716.432C261.098 722.426 256.257 727.037 250.078 730.265C243.991 733.493 237.167 735.107 229.604 735.107ZM229.604 714.633C234.123 714.633 237.951 712.973 241.086 709.653C244.314 706.333 245.928 701.584 245.928 695.405C245.928 689.226 244.36 684.477 241.224 681.157C238.181 677.837 234.4 676.177 229.881 676.177C225.27 676.177 221.443 677.837 218.399 681.157C215.356 684.384 213.834 689.134 213.834 695.405C213.834 701.584 215.31 706.333 218.261 709.653C221.304 712.973 225.086 714.633 229.604 714.633ZM330.964 655.98C340.002 655.98 347.195 658.931 352.544 664.833C357.985 670.643 360.706 678.667 360.706 688.903V734H337.189V692.085C337.189 686.921 335.852 682.909 333.177 680.05C330.503 677.191 326.906 675.762 322.387 675.762C317.868 675.762 314.272 677.191 311.597 680.05C308.923 682.909 307.586 686.921 307.586 692.085V734H283.931V656.81H307.586V667.047C309.983 663.634 313.211 660.96 317.269 659.023C321.327 656.994 325.892 655.98 330.964 655.98ZM373.823 695.267C373.823 687.336 375.299 680.373 378.25 674.378C381.293 668.384 385.397 663.773 390.562 660.545C395.726 657.317 401.49 655.703 407.854 655.703C413.295 655.703 418.044 656.81 422.102 659.023C426.252 661.237 429.434 664.142 431.647 667.738V656.81H455.302V734H431.647V723.072C429.341 726.668 426.114 729.573 421.964 731.787C417.906 734 413.156 735.107 407.715 735.107C401.444 735.107 395.726 733.493 390.562 730.265C385.397 726.945 381.293 722.288 378.25 716.293C375.299 710.207 373.823 703.198 373.823 695.267ZM431.647 695.405C431.647 689.503 429.987 684.846 426.667 681.433C423.439 678.021 419.474 676.315 414.77 676.315C410.067 676.315 406.055 678.021 402.735 681.433C399.507 684.753 397.894 689.364 397.894 695.267C397.894 701.169 399.507 705.872 402.735 709.377C406.055 712.789 410.067 714.495 414.77 714.495C419.474 714.495 423.439 712.789 426.667 709.377C429.987 705.964 431.647 701.307 431.647 695.405ZM516.82 713.942V734H504.785C496.209 734 489.522 731.925 484.727 727.775C479.931 723.533 477.534 716.662 477.534 707.163V676.453H468.127V656.81H477.534V637.997H501.189V656.81H516.682V676.453H501.189V707.44C501.189 709.746 501.742 711.406 502.849 712.42C503.955 713.434 505.8 713.942 508.382 713.942H516.82ZM543.276 648.787C539.126 648.787 535.714 647.588 533.04 645.19C530.458 642.7 529.166 639.657 529.166 636.06C529.166 632.371 530.458 629.328 533.04 626.93C535.714 624.44 539.126 623.195 543.276 623.195C547.334 623.195 550.654 624.44 553.236 626.93C555.911 629.328 557.248 632.371 557.248 636.06C557.248 639.657 555.911 642.7 553.236 645.19C550.654 647.588 547.334 648.787 543.276 648.787ZM555.035 656.81V734H531.38V656.81H555.035ZM608.697 735.107C601.135 735.107 594.311 733.493 588.224 730.265C582.23 727.037 577.48 722.426 573.976 716.432C570.563 710.437 568.857 703.428 568.857 695.405C568.857 687.474 570.61 680.511 574.114 674.517C577.618 668.43 582.414 663.773 588.501 660.545C594.587 657.317 601.412 655.703 608.974 655.703C616.536 655.703 623.361 657.317 629.447 660.545C635.534 663.773 640.33 668.43 643.834 674.517C647.338 680.511 649.091 687.474 649.091 695.405C649.091 703.336 647.292 710.345 643.696 716.432C640.191 722.426 635.35 727.037 629.171 730.265C623.084 733.493 616.26 735.107 608.697 735.107ZM608.697 714.633C613.216 714.633 617.043 712.973 620.179 709.653C623.407 706.333 625.021 701.584 625.021 695.405C625.021 689.226 623.453 684.477 620.317 681.157C617.274 677.837 613.493 676.177 608.974 676.177C604.363 676.177 600.536 677.837 597.492 681.157C594.449 684.384 592.927 689.134 592.927 695.405C592.927 701.584 594.403 706.333 597.354 709.653C600.397 712.973 604.178 714.633 608.697 714.633ZM710.057 655.98C719.094 655.98 726.288 658.931 731.637 664.833C737.078 670.643 739.798 678.667 739.798 688.903V734H716.282V692.085C716.282 686.921 714.945 682.909 712.27 680.05C709.596 677.191 705.999 675.762 701.48 675.762C696.961 675.762 693.364 677.191 690.69 680.05C688.016 682.909 686.678 686.921 686.678 692.085V734H663.023V656.81H686.678V667.047C689.076 663.634 692.304 660.96 696.362 659.023C700.419 656.994 704.984 655.98 710.057 655.98Z" fill="#202124"/>
<path d="M98.6994 837.659V872.297C98.6994 876.414 99.768 879.516 101.905 881.601C104.094 883.686 107.118 884.728 110.975 884.728C114.884 884.728 117.908 883.686 120.045 881.601C122.234 879.516 123.329 876.414 123.329 872.297V837.659H132.242V872.14C132.242 876.571 131.278 880.324 129.349 883.399C127.421 886.475 124.84 888.768 121.609 890.28C118.377 891.791 114.806 892.547 110.897 892.547C106.987 892.547 103.417 891.791 100.185 890.28C97.0053 888.768 94.4772 886.475 92.6007 883.399C90.7242 880.324 89.7859 876.571 89.7859 872.14V837.659H98.6994ZM153.543 837.659V892H144.63V837.659H153.543ZM190.873 879.881C195.877 875.554 199.813 872.01 202.68 869.247C205.599 866.432 208.022 863.513 209.951 860.49C211.88 857.467 212.844 854.443 212.844 851.42C212.844 848.293 212.088 845.843 210.577 844.071C209.117 842.298 206.798 841.412 203.618 841.412C200.542 841.412 198.145 842.402 196.425 844.383C194.757 846.312 193.87 848.918 193.766 852.202H185.165C185.322 846.26 187.094 841.725 190.482 838.597C193.923 835.418 198.275 833.828 203.54 833.828C209.221 833.828 213.652 835.392 216.832 838.519C220.064 841.647 221.679 845.817 221.679 851.029C221.679 854.782 220.715 858.405 218.786 861.897C216.91 865.338 214.642 868.439 211.984 871.202C209.378 873.912 206.042 877.066 201.976 880.663L198.457 883.79H223.243V891.218H185.244V884.728L190.873 879.881ZM231.856 862.758C231.856 853.74 233.367 846.703 236.39 841.647C239.466 836.538 244.731 833.984 252.184 833.984C259.638 833.984 264.877 836.538 267.9 841.647C270.976 846.703 272.513 853.74 272.513 862.758C272.513 871.88 270.976 879.021 267.9 884.181C264.877 889.289 259.638 891.844 252.184 891.844C244.731 891.844 239.466 889.289 236.39 884.181C233.367 879.021 231.856 871.88 231.856 862.758ZM263.756 862.758C263.756 858.535 263.47 854.965 262.896 852.046C262.375 849.127 261.28 846.755 259.612 844.931C257.944 843.054 255.468 842.116 252.184 842.116C248.901 842.116 246.425 843.054 244.757 844.931C243.089 846.755 241.968 849.127 241.394 852.046C240.873 854.965 240.613 858.535 240.613 862.758C240.613 867.136 240.873 870.811 241.394 873.782C241.916 876.753 243.01 879.151 244.678 880.975C246.399 882.8 248.901 883.712 252.184 883.712C255.468 883.712 257.944 882.8 259.612 880.975C261.333 879.151 262.453 876.753 262.974 873.782C263.496 870.811 263.756 867.136 263.756 862.758ZM287.653 879.881C292.657 875.554 296.592 872.01 299.459 869.247C302.378 866.432 304.802 863.513 306.731 860.49C308.659 857.467 309.624 854.443 309.624 851.42C309.624 848.293 308.868 845.843 307.356 844.071C305.897 842.298 303.577 841.412 300.397 841.412C297.322 841.412 294.924 842.402 293.204 844.383C291.536 846.312 290.65 848.918 290.546 852.202H281.945C282.101 846.26 283.874 841.725 287.262 838.597C290.702 835.418 295.055 833.828 300.319 833.828C306.001 833.828 310.432 835.392 313.611 838.519C316.843 841.647 318.459 845.817 318.459 851.029C318.459 854.782 317.495 858.405 315.566 861.897C313.689 865.338 311.422 868.439 308.764 871.202C306.157 873.912 302.821 877.066 298.755 880.663L295.237 883.79H320.023V891.218H282.023V884.728L287.653 879.881ZM327.462 843.132V835.001H343.725V892H334.734V843.132H327.462Z" fill="#FFB600"/>
<path d="M1570.46 209.43C1555.73 201.4 1548.97 208.102 1543.68 201.4C1538.38 194.698 1558.41 177.288 1518.27 159.878C1518.27 159.878 1515.6 122.382 1460.67 121.034C1405.75 119.686 1420.5 158.55 1405.77 167.929C1391.03 177.307 1387.01 162.575 1372.28 171.954C1357.54 181.333 1364.21 200.012 1352.15 202.748C1340.09 205.483 1324.01 190.692 1309.28 200.071C1294.55 209.45 1294.55 217.48 1287.79 217.48C1281.03 217.48 1267.68 212.127 1259.65 217.48C1251.62 222.834 1242.24 229.536 1242.24 229.536H1581.19C1581.19 229.536 1585.2 217.48 1570.46 209.43Z" stroke="#263238" stroke-width="0.918949" stroke-linecap="round" stroke-linejoin="round"/>
<path d="M1370.01 203.92C1368.09 205.004 1366.09 205.944 1364.03 206.734" stroke="#263238" stroke-width="0.918949" stroke-linecap="round" stroke-linejoin="round"/>
<path d="M1442.5 141.393C1439.18 142.877 1436.26 145.133 1433.98 147.975C1431.71 150.816 1430.15 154.16 1429.43 157.728C1426.97 169.999 1421.24 178.166 1414.72 178.987C1408.19 179.808 1383.65 177.346 1379.54 186.353C1378.45 188.986 1377.68 191.742 1377.26 194.56" stroke="#263238" stroke-width="0.918949" stroke-linecap="round" stroke-linejoin="round"/>
<path d="M1239.66 305.72C1231.94 301.52 1228.43 305.017 1225.61 301.52C1222.8 298.022 1233.33 288.878 1212.27 279.733C1212.27 279.733 1210.86 260.076 1182.08 259.373C1153.3 258.67 1161 279.03 1153.28 284.032C1145.56 289.034 1143.51 281.218 1135.69 286.142C1127.88 291.066 1131.49 300.894 1125.16 302.301C1118.83 303.708 1110.41 295.97 1102.69 300.894C1094.97 305.818 1094.87 310.019 1091.46 310.019C1088.04 310.019 1080.92 307.205 1076.7 310.019C1072.48 312.833 1067.58 316.33 1067.58 316.33H1245.25C1245.25 316.33 1247.36 309.941 1239.66 305.72Z" stroke="#263238" stroke-width="0.918949" stroke-linecap="round" stroke-linejoin="round"/>
<path d="M1134.56 302.848C1133.54 303.402 1132.49 303.892 1131.41 304.313" stroke="#263238" stroke-width="0.918949" stroke-linecap="round" stroke-linejoin="round"/>
<path d="M1172.56 270.041C1170.82 270.817 1169.29 271.999 1168.09 273.488C1166.9 274.976 1166.08 276.729 1165.7 278.599C1164.41 285.028 1161.43 289.326 1157.89 289.756C1154.35 290.186 1141.61 288.897 1139.46 293.664C1138.9 295.046 1138.49 296.488 1138.25 297.963" stroke="#263238" stroke-width="0.918949" stroke-linecap="round" stroke-linejoin="round"/>
<path d="M1469.43 452.696C1469.43 452.696 1561.52 461.821 1608.16 518.895C1608.16 518.895 1657.47 452.774 1746.05 454.122C1767.68 428.015 1781.46 396.299 1785.77 362.667C1790.08 329.035 1784.74 294.871 1770.39 264.151C1756.04 233.432 1733.25 207.422 1704.69 189.149C1676.13 170.876 1642.97 161.092 1609.06 160.936C1575.15 160.781 1541.9 170.26 1513.17 188.27C1484.44 206.279 1461.42 232.08 1446.79 262.666C1432.15 293.252 1426.51 327.366 1430.51 361.036C1434.51 394.706 1447.99 426.547 1469.39 452.852L1469.43 452.696Z" fill="#FFC100"/>
<path opacity="0.5" d="M1469.43 452.696C1469.43 452.696 1561.52 461.821 1608.16 518.895C1608.16 518.895 1657.47 452.774 1746.05 454.122C1767.68 428.015 1781.46 396.299 1785.77 362.667C1790.08 329.035 1784.74 294.871 1770.39 264.151C1756.04 233.432 1733.25 207.422 1704.69 189.149C1676.13 170.876 1642.97 161.092 1609.06 160.936C1575.15 160.781 1541.9 170.26 1513.17 188.27C1484.44 206.279 1461.42 232.08 1446.79 262.666C1432.15 293.252 1426.51 327.366 1430.51 361.036C1434.51 394.706 1447.99 426.547 1469.39 452.852L1469.43 452.696Z" fill="white"/>
<path d="M1605.15 173.556L1602.02 877.561H1617.57L1605.15 173.556Z" fill="#263238"/>
<path d="M1609.8 501.505C1609.8 501.505 1640.88 445.544 1696.77 428.447C1696.77 428.447 1637.7 442.437 1608.18 490.621L1609.8 501.505Z" fill="#263238"/>
<path d="M1609.8 342.963C1609.8 342.963 1640.88 287.021 1696.77 269.924C1696.77 269.924 1637.7 283.915 1608.18 332.079L1609.8 342.963Z" fill="#263238"/>
<path d="M1609.8 422.234C1609.8 422.234 1640.88 366.273 1696.77 349.176C1696.77 349.176 1637.7 363.166 1608.18 411.35L1609.8 422.234Z" fill="#263238"/>
<path d="M1605.19 383.37C1605.19 383.37 1575.19 327.429 1521.17 310.332C1521.17 310.332 1578.16 324.322 1606.65 372.506L1605.19 383.37Z" fill="#263238"/>
<path d="M1605.19 461.078C1605.19 461.078 1575.19 405.137 1521.17 388.04C1521.17 388.04 1578.16 402.03 1606.65 450.214L1605.19 461.078Z" fill="#263238"/>
<path d="M1181.24 525.675C1181.24 525.675 1257.44 533.237 1296.15 580.503C1296.15 580.503 1336.99 525.792 1410.34 526.867C1428.26 505.245 1439.68 478.975 1443.25 451.117C1446.83 423.259 1442.41 394.959 1430.53 369.512C1418.64 344.065 1399.77 322.518 1376.11 307.381C1352.45 292.243 1324.98 284.138 1296.9 284.009C1268.81 283.879 1241.26 291.731 1217.47 306.65C1193.67 321.569 1174.6 342.941 1162.48 368.278C1150.36 393.614 1145.69 421.872 1149 449.762C1152.32 477.652 1163.49 504.026 1181.22 525.812L1181.24 525.675Z" fill="#FFC100"/>
<path opacity="0.3" d="M1181.24 525.675C1181.24 525.675 1257.44 533.237 1296.15 580.503C1296.15 580.503 1336.99 525.792 1410.34 526.867C1428.26 505.245 1439.68 478.975 1443.25 451.117C1446.83 423.259 1442.41 394.959 1430.53 369.512C1418.64 344.065 1399.77 322.518 1376.11 307.381C1352.45 292.243 1324.98 284.138 1296.9 284.009C1268.81 283.879 1241.26 291.731 1217.47 306.65C1193.67 321.569 1174.6 342.941 1162.48 368.278C1150.36 393.614 1145.69 421.872 1149 449.762C1152.32 477.652 1163.49 504.026 1181.22 525.812L1181.24 525.675Z" fill="white"/>
<path d="M1293.63 294.485L1291.07 877.561H1303.93L1293.63 294.485Z" fill="#263238"/>
<path d="M1297.5 566.103C1297.5 566.103 1323.23 519.755 1369.58 505.531C1369.58 505.531 1320.73 517.117 1296.21 557.017L1297.5 566.103Z" fill="#263238"/>
<path d="M1297.5 434.798C1297.5 434.798 1323.23 388.45 1369.58 374.226C1369.58 374.226 1320.73 385.812 1296.21 425.731L1297.5 434.798Z" fill="#263238"/>
<path d="M1297.5 500.45C1297.5 500.45 1323.23 454.102 1369.58 439.877C1369.58 439.877 1320.73 451.464 1296.21 491.383L1297.5 500.45Z" fill="#263238"/>
<path d="M1293.69 468.269C1293.69 468.269 1268.83 421.921 1224.13 407.697C1224.13 407.697 1271.32 419.284 1294.92 459.203L1293.69 468.269Z" fill="#263238"/>
<path d="M1293.69 532.631C1293.69 532.631 1268.83 486.284 1224.13 472.059C1224.13 472.059 1271.32 483.646 1294.92 523.565L1293.69 532.631Z" fill="#263238"/>
<path d="M1360.94 876.897C1360.67 870.781 1361.47 859.174 1368.06 841.726C1378.37 814.371 1396.45 869.081 1396.45 869.081C1396.45 869.081 1396.45 862.574 1415.81 841.726C1435.17 820.877 1451.94 857.357 1451.94 857.357C1451.94 857.357 1442.91 770.094 1464.85 776.601C1486.8 783.108 1484.2 857.357 1484.2 857.357C1484.2 857.357 1499.69 802.647 1520.35 802.647C1541 802.647 1546.16 841.726 1546.16 841.726C1546.16 841.726 1551.32 772.693 1571.97 771.384C1592.62 770.075 1615.83 828.713 1615.83 828.713C1615.83 828.713 1609.39 750.555 1630.04 746.647C1650.69 742.739 1658.43 775.292 1658.43 775.292C1658.43 775.292 1676.48 667.18 1711.34 680.213C1746.2 693.246 1716.5 813.081 1716.5 813.081C1716.5 813.081 1751.34 729.706 1779.73 749.246C1805.54 767.007 1772.7 860.112 1766.52 876.897H1360.94Z" fill="#FFC100"/>
<path d="M1777.52 876.721C1777.52 876.721 1792.65 830.002 1784.89 822.186C1777.13 814.371 1743.66 848.252 1743.66 848.252C1743.66 848.252 1768.18 764.877 1729.46 754.463C1690.73 744.048 1684.3 835.219 1684.3 835.219C1684.3 835.219 1655.91 793.542 1649.44 809.173C1645.55 818.7 1643.36 828.841 1642.99 839.127C1642.99 839.127 1628.81 725.799 1596.53 731.016C1564.25 736.233 1593.95 848.252 1593.95 848.252C1593.95 848.252 1575.9 809.173 1555.24 813.081C1534.59 816.989 1526.77 841.726 1526.77 841.726C1526.77 841.726 1517.75 819.588 1511.28 819.588C1504.81 819.588 1497.09 858.666 1497.09 858.666C1497.09 858.666 1489.28 798.739 1475.15 801.357C1461.02 803.976 1431.27 854.759 1431.27 854.759C1431.27 854.759 1436.44 826.094 1420.95 824.805C1405.45 823.515 1396.43 869.081 1396.43 869.081C1396.43 869.081 1375.77 826.094 1362.88 833.91C1349.98 841.726 1356.14 878.03 1356.14 878.03" stroke="#263238" stroke-width="0.918949" stroke-linecap="round" stroke-linejoin="round"/>
<path d="M1707.85 876.075L1719.08 820.896" stroke="#263238" stroke-width="0.918949" stroke-linecap="round" stroke-linejoin="round"/>
<path d="M1627.46 876.896L1620.99 840.436" stroke="#263238" stroke-width="0.918949" stroke-linecap="round" stroke-linejoin="round"/>
<path d="M1464.25 876.721L1472.59 846.943" stroke="#263238" stroke-width="0.918949" stroke-linecap="round" stroke-linejoin="round"/>
<path d="M1564.21 878.206L1550.03 852.16" stroke="#263238" stroke-width="0.918949" stroke-linecap="round" stroke-linejoin="round"/>
<path d="M1710.05 854.758L1699.72 833.91" stroke="#263238" stroke-width="0.918949" stroke-linecap="round" stroke-linejoin="round"/>
<path d="M1627.46 865.173L1636.49 846.943" stroke="#263238" stroke-width="0.918949" stroke-linecap="round" stroke-linejoin="round"/>
<path d="M1557.76 863.883L1564.21 852.16" stroke="#263238" stroke-width="0.918949" stroke-linecap="round" stroke-linejoin="round"/>
<path d="M1466.85 865.661L1462.27 849.541" stroke="#263238" stroke-width="0.918949" stroke-linecap="round" stroke-linejoin="round"/>
<path d="M1302.07 877.189C1302.29 872.441 1301.68 863.512 1296.85 849.834C1289.29 828.595 1276.02 871.073 1276.02 871.073C1276.02 871.073 1276.02 866.013 1261.84 849.834C1247.65 833.655 1235.34 861.968 1235.34 861.968C1235.34 861.968 1241.97 794.225 1225.87 799.286C1209.77 804.346 1211.68 861.968 1211.68 861.968C1211.68 861.968 1200.47 819.567 1185.23 819.567C1169.98 819.567 1166.29 849.893 1166.29 849.893C1166.29 849.893 1162.52 796.296 1147.38 795.3C1132.23 794.303 1115.2 839.771 1115.2 839.771C1115.2 839.771 1119.92 779.199 1104.78 776.073C1089.64 772.946 1083.95 798.328 1083.95 798.328C1083.95 798.328 1070.7 714.406 1045.15 724.508C1019.59 734.61 1041.36 827.657 1041.36 827.657C1041.36 827.657 1015.8 762.942 994.99 778.105C976.056 791.9 1000.15 864.078 1004.76 877.189H1302.07Z" fill="#FFC100"/>
<path d="M996.611 877.053C996.611 877.053 985.532 840.788 991.199 834.73C996.865 828.673 1021.48 854.954 1021.48 854.954C1021.48 854.954 1003.51 790.239 1031.9 782.15C1060.29 774.061 1065.12 844.832 1065.12 844.832C1065.12 844.832 1085.95 812.475 1090.67 824.609C1093.54 832.041 1095.14 839.901 1095.4 847.861C1095.4 847.861 1105.82 759.934 1129.48 763.939C1153.14 767.945 1131.43 854.954 1131.43 854.954C1131.43 854.954 1144.68 824.609 1159.82 827.599C1174.97 830.588 1180.65 849.834 1180.65 849.834C1180.65 849.834 1187.28 832.64 1192.01 832.64C1196.73 832.64 1202.42 862.984 1202.42 862.984C1202.42 862.984 1208.11 816.461 1218.52 818.493C1228.93 820.525 1250.7 859.936 1250.7 859.936C1250.7 859.936 1246.91 837.7 1258.26 836.684C1269.62 835.668 1276.24 871.074 1276.24 871.074C1276.24 871.074 1291.38 837.7 1300.86 843.719C1310.34 849.737 1305.67 878.03 1305.67 878.03" stroke="#263238" stroke-width="0.918949" stroke-linecap="round" stroke-linejoin="round"/>
<path d="M1047.71 876.544L1039.46 833.714" stroke="#263238" stroke-width="0.918949" stroke-linecap="round" stroke-linejoin="round"/>
<path d="M1106.68 877.189L1111.41 848.877" stroke="#263238" stroke-width="0.918949" stroke-linecap="round" stroke-linejoin="round"/>
<path d="M1226.38 877.053L1220.24 853.938" stroke="#263238" stroke-width="0.918949" stroke-linecap="round" stroke-linejoin="round"/>
<path d="M1153.04 878.205L1163.46 857.982" stroke="#263238" stroke-width="0.918949" stroke-linecap="round" stroke-linejoin="round"/>
<path d="M1046.1 859.995L1053.67 843.816" stroke="#263238" stroke-width="0.918949" stroke-linecap="round" stroke-linejoin="round"/>
<path d="M1106.68 868.084L1100.05 853.938" stroke="#263238" stroke-width="0.918949" stroke-linecap="round" stroke-linejoin="round"/>
<path d="M1157.77 867.087L1153.04 857.982" stroke="#263238" stroke-width="0.918949" stroke-linecap="round" stroke-linejoin="round"/>
<path d="M1224.46 868.455L1227.82 855.95" stroke="#263238" stroke-width="0.918949" stroke-linecap="round" stroke-linejoin="round"/>
<path d="M883.927 877.561H1815.96" stroke="#263238" stroke-width="0.918949" stroke-linecap="round" stroke-linejoin="round"/>
<path d="M1595.71 715.032L1586.17 729.355L1507.82 763.412C1507.82 763.412 1496.92 765.463 1496.92 768.863C1496.92 772.263 1494.87 781.818 1496.92 783.186C1498.97 784.553 1512.55 779.766 1512.55 779.766C1512.55 779.766 1508.47 784.534 1512.55 785.902C1516.63 787.269 1520.72 781.134 1520.72 781.134C1524.72 778.614 1528.58 775.888 1532.3 772.967C1534.22 770.444 1535.82 767.694 1537.07 764.78L1609.37 746.393L1624.35 723.903C1624.35 723.903 1593.68 720.484 1595.71 715.032Z" fill="#B5B5B5" stroke="#263238" stroke-width="0.918949" stroke-linecap="round" stroke-linejoin="round"/>
<path d="M1601.16 682.909L1592.29 712.023L1615.48 725.837L1624.84 703.133L1601.16 682.909Z" fill="white" stroke="#263238" stroke-width="0.918949" stroke-linecap="round" stroke-linejoin="round"/>
<path d="M1593.21 702.644L1621.34 719.429L1616.4 728.3L1589.77 714.485C1589.95 710.32 1591.13 706.26 1593.21 702.644Z" fill="white" stroke="#263238" stroke-width="0.918949" stroke-linecap="round" stroke-linejoin="round"/>
<path d="M1537.52 856.537C1537.52 856.537 1517.79 866.404 1512.35 870.84C1506.92 875.275 1505.94 874.748 1507.41 878.245H1570.58L1569.1 855.54L1537.52 856.537Z" fill="white" stroke="#263238" stroke-width="0.918949" stroke-linecap="round" stroke-linejoin="round"/>
<path d="M1570.35 874.845H1507.41C1506.55 875.764 1506.65 876.506 1507.41 878.304H1570.58L1570.35 874.845Z" fill="white" stroke="#263238" stroke-width="0.918949" stroke-linecap="round" stroke-linejoin="round"/>
<path d="M1622.38 739.163C1622.38 739.163 1598.21 729.296 1578.47 727.322C1558.74 725.349 1517.79 726.326 1515.81 735.138C1513.84 743.95 1544.93 840.651 1544.93 840.651C1544.93 840.651 1539.49 844.109 1539.06 846.512C1538.63 848.916 1537.6 856.282 1537.6 856.282L1569.17 861.206C1569.17 861.206 1570.15 851.339 1570.15 841.979C1570.15 832.62 1559.31 774.861 1559.31 774.861L1622.95 795.104L1599.26 845.418C1599.26 845.418 1591.88 860.229 1600.26 867.635C1608.64 875.04 1622.46 873.496 1622.46 873.496L1734.97 874.981L1733.01 856.712C1733.01 856.712 1716.74 854.25 1713.77 854.25C1710.8 854.25 1654.05 839.947 1654.05 839.947C1654.05 839.947 1699.46 792.564 1704.39 784.67C1707.32 780.3 1709.31 775.371 1710.25 770.192C1711.18 765.014 1711.04 759.699 1709.82 754.58C1706.85 742.739 1704.88 740.257 1704.88 740.257C1704.88 740.257 1670.25 756.885 1652.49 752.977C1641.61 750.489 1631.36 745.787 1622.38 739.163Z" fill="#263238" stroke="#263238" stroke-width="0.918949" stroke-linecap="round" stroke-linejoin="round"/>
<path d="M1541.96 587.674C1541.96 587.674 1545.41 599.027 1545.41 600.512C1545.41 601.997 1542.93 609.383 1544.93 611.844C1546.92 614.306 1552.74 614.814 1552.74 614.814C1552.74 614.814 1561.61 625.17 1565.56 629.117C1569.51 633.064 1573.94 634.549 1578.89 632.087C1583.83 629.625 1588.26 623.197 1588.26 623.197L1597.64 632.576L1619.35 607.409L1611.54 597.542C1611.54 597.542 1613.49 586.189 1606.1 571.398C1598.72 556.607 1573.04 552.64 1556.26 555.61C1539.47 558.58 1535.55 568.428 1535.55 570.401C1535.55 572.375 1541.96 587.674 1541.96 587.674Z" fill="white" stroke="#263238" stroke-width="0.918949" stroke-linecap="round" stroke-linejoin="round"/>
<path d="M1550.85 542.773C1550.85 542.773 1540.47 534.957 1533.57 538.337C1526.68 541.718 1529.67 544.746 1528.63 550.667C1527.59 556.587 1510.38 557.076 1510.38 566.943C1510.38 576.81 1522.71 580.269 1525.17 580.757C1527.63 581.246 1525.68 592.11 1532.99 592.11C1540.29 592.11 1541.88 587.674 1541.88 587.674C1541.88 587.674 1536.45 571.886 1542.37 569.424C1548.29 566.962 1561.61 562.019 1559.64 571.378C1557.67 580.738 1564.58 583.708 1568.53 582.731C1572.48 581.754 1577.4 582.223 1578.3 584.196C1579.2 586.17 1584.16 589.628 1584.16 584.704C1584.16 579.78 1586.62 575.325 1591.06 575.325C1595.49 575.325 1598.87 582.731 1598.46 588.651C1598.13 592.217 1596.77 595.609 1594.56 598.421L1611.34 597.424C1611.34 597.424 1615.78 575.228 1611.83 559.44C1607.88 543.652 1589.3 534.879 1577.97 533.394C1566.63 531.909 1552.31 538.337 1550.85 542.773Z" fill="#263238" stroke="#263238" stroke-width="0.918949" stroke-linecap="round" stroke-linejoin="round"/>
<path d="M1555.09 596.487C1556.32 598.441 1556.61 600.395 1555.77 600.883C1554.93 601.371 1553.21 600.395 1552 598.519C1550.79 596.643 1550.46 594.611 1551.31 594.122C1552.17 593.634 1553.86 594.709 1555.09 596.487Z" fill="#263238"/>
<path d="M1561.5 618.644C1563.85 618.175 1565.99 616.94 1567.57 615.13C1569.16 613.321 1570.1 611.039 1570.25 608.64" stroke="#263238" stroke-width="0.918949" stroke-linecap="round" stroke-linejoin="round"/>
<path d="M1546.47 592.364C1546.47 592.364 1547.29 587.773 1552.72 589.863" stroke="#263238" stroke-width="0.918949" stroke-linecap="round" stroke-linejoin="round"/>
<path d="M1598.7 640.958C1598.7 640.958 1594.79 673.531 1599.19 683.398C1603.58 693.265 1619.43 732.735 1619.43 732.735C1619.43 732.735 1615.97 756.886 1625.84 763.334C1635.71 769.782 1673.2 770.739 1687.52 761.849C1701.85 752.958 1707.75 746.061 1707.75 739.652C1707.75 733.243 1698.37 705.106 1683.58 676.989C1672.75 656.397 1657.79 638.253 1639.65 623.686C1629.3 615.303 1625.35 611.356 1623.38 611.356C1621.4 611.356 1597.72 631.599 1598.7 640.958Z" fill="white" stroke="#263238" stroke-width="0.918949" stroke-linecap="round" stroke-linejoin="round"/>
<path d="M1619.43 604.948L1592.78 635.038L1598.21 651.334L1628.3 612.353L1619.43 604.948Z" fill="white" stroke="#263238" stroke-width="0.918949" stroke-linecap="round" stroke-linejoin="round"/>
<path d="M1619.92 714.973C1619.92 714.973 1565.64 746.061 1558.74 748.542C1551.84 751.024 1529.63 751.004 1523.2 750.496C1522.41 750.355 1521.6 750.39 1520.83 750.598C1520.05 750.806 1519.33 751.181 1518.72 751.698C1518.11 752.214 1517.62 752.86 1517.29 753.587C1516.95 754.315 1516.78 755.108 1516.79 755.908L1515.81 774.666C1515.81 774.666 1521.22 776.151 1523.63 774.666C1526.03 773.181 1528.55 767.749 1528.55 767.749C1528.55 767.749 1537.44 768.746 1540.39 766.772C1542.33 765.455 1544.15 763.971 1545.82 762.337C1554.94 761.58 1564 760.275 1572.96 758.429C1582.83 755.948 1628.22 741.156 1635.14 739.671C1642.06 738.186 1644.52 734.239 1645.01 731.855C1645.5 729.472 1619.92 714.973 1619.92 714.973Z" fill="white" stroke="#263238" stroke-width="0.918949" stroke-linecap="round" stroke-linejoin="round"/>
<path d="M1558.04 748.737C1550.49 750.984 1529.43 750.984 1523.2 750.515C1522.41 750.375 1521.6 750.409 1520.83 750.617C1520.05 750.825 1519.33 751.2 1518.72 751.717C1518.11 752.234 1517.62 752.879 1517.29 753.607C1516.95 754.335 1516.78 755.127 1516.79 755.928L1515.81 774.686C1515.81 774.686 1521.22 776.171 1523.63 774.686C1526.03 773.201 1528.55 767.769 1528.55 767.769C1528.55 767.769 1537.44 768.765 1540.39 766.792C1542.33 765.474 1544.15 763.99 1545.82 762.356C1545.82 762.356 1554.11 761.633 1562.49 760.402L1558.04 748.737Z" fill="#FFC100" stroke="#263238" stroke-width="0.918949" stroke-linecap="round" stroke-linejoin="round"/>
<path d="M1623.86 641.466C1623.86 641.466 1615.48 650.825 1616.46 657.742C1617.44 664.659 1619.92 714.973 1619.92 714.973L1648.04 726.325L1655.85 686.367C1655.85 686.367 1662.28 675.992 1661.28 666.125" fill="white"/>
<path d="M1623.86 641.466C1623.86 641.466 1615.48 650.825 1616.46 657.742C1617.44 664.659 1619.92 714.973 1619.92 714.973L1648.04 726.325L1655.85 686.367C1655.85 686.367 1662.28 675.992 1661.28 666.125" stroke="#263238" stroke-width="0.918949" stroke-linecap="round" stroke-linejoin="round"/>
<path d="M1617.46 717.455L1646.06 734.708C1646.06 734.708 1649.97 734.708 1650.52 728.3C1651.06 721.891 1653.96 720.894 1651.49 717.455C1649.03 714.016 1622.87 703.133 1620.41 703.133C1617.94 703.133 1615.48 709.053 1617.46 717.455Z" fill="white" stroke="#263238" stroke-width="0.918949" stroke-linecap="round" stroke-linejoin="round"/>
<path d="M1732.91 857.083C1732.91 857.083 1747.71 844.265 1750.19 844.754C1752.67 845.242 1772.38 864 1772.38 864C1772.38 864 1790.63 873.868 1790.63 875.353C1790.63 876.838 1787.68 877.307 1787.68 877.307L1734.93 875.353L1732.91 857.083Z" fill="white" stroke="#263238" stroke-width="0.918949" stroke-linecap="round" stroke-linejoin="round"/>
<path d="M1790.56 875.353C1790.56 873.868 1772.31 864 1772.31 864C1772.31 864 1752.57 845.243 1750.11 844.754C1749.23 844.578 1746.77 846.102 1743.99 848.134L1767.87 864.977L1785.26 877.229L1787.6 877.326C1787.6 877.326 1790.56 876.818 1790.56 875.353Z" fill="white" stroke="#263238" stroke-width="0.918949" stroke-linecap="round" stroke-linejoin="round"/>
<path d="M1622.87 795.417L1617.94 774.686" stroke="#999999" stroke-width="0.918949" stroke-linecap="round" stroke-linejoin="round"/>
<path d="M1451.2 713.274C1445.33 709.952 1436.72 705.458 1436.72 705.458C1436.72 705.458 1425.11 676.149 1416.01 662.471C1406.9 648.794 1401.51 647.133 1391.56 646.312C1381.62 645.491 1351.82 653.346 1350.53 655.417C1350.53 655.417 1322.78 668.255 1315.75 677.38C1308.71 686.505 1311.18 757.296 1311.18 757.296C1311.18 757.296 1281.4 777.461 1273.54 799.872C1268.54 814.077 1274.36 837.544 1301.29 844.598C1310.27 847.002 1319.7 847.209 1328.78 845.204C1335.78 851.104 1343.52 856.052 1351.82 859.917C1379.56 873.165 1397.77 875.646 1414.75 876.486C1431.73 877.326 1449.12 871.934 1452.45 868.67C1455.77 865.407 1462.39 852.511 1445.41 833.89C1430.78 817.809 1386.62 799.911 1374.7 795.28C1375.88 788.326 1376.54 781.291 1376.65 774.237C1376.65 774.237 1402.33 744.927 1404.01 738.206C1405.69 731.484 1409.87 704.246 1409.87 704.246C1409.87 704.246 1423.96 729.941 1428.1 733.653C1432.24 737.366 1456.26 734.493 1458.74 734.493C1461.22 734.493 1462.47 723.727 1462.47 723.727C1459.32 719.638 1455.51 716.105 1451.2 713.274Z" fill="white" stroke="#263238" stroke-width="0.918949" stroke-linecap="round" stroke-linejoin="round"/>
<path d="M1445.41 833.793C1430.78 817.712 1386.62 799.814 1374.7 795.183C1375.07 793.014 1375.38 790.904 1375.62 788.911C1364.47 791.372 1352.91 791.138 1341.87 788.227C1310.39 779.942 1303.77 762.962 1303.77 762.962H1303.54C1294.14 770.583 1278.84 784.71 1273.54 799.814C1268.54 814.019 1274.36 837.486 1301.29 844.539C1310.27 846.943 1319.7 847.151 1328.78 845.145C1335.78 851.046 1343.52 855.993 1351.82 859.858C1379.56 873.106 1397.77 875.588 1414.75 876.428C1431.73 877.268 1449.12 871.875 1452.45 868.612C1455.77 865.349 1462.39 852.414 1445.41 833.793Z" fill="#696969" stroke="#263238" stroke-width="0.918949" stroke-linecap="round" stroke-linejoin="round"/>
<path d="M1290.09 802.725C1290.09 802.725 1305 784.495 1324.48 791.959C1392.54 818.044 1409.79 847.041 1414.36 858.628C1418.94 870.214 1417.26 876.447 1413.54 878.929C1409.83 881.41 1370.89 872.305 1352.25 865.681C1333.61 859.057 1308.75 862.36 1287.63 844.559C1266.51 826.759 1269.83 809.388 1276.45 794.441" fill="#696969"/>
<path d="M1290.09 802.725C1290.09 802.725 1305 784.495 1324.48 791.959C1392.54 818.044 1409.79 847.041 1414.36 858.628C1418.94 870.214 1417.26 876.447 1413.54 878.929C1409.83 881.41 1370.89 872.305 1352.25 865.681C1333.61 859.057 1308.75 862.36 1287.63 844.559C1266.51 826.759 1269.83 809.388 1276.45 794.441" stroke="#263238" stroke-width="0.918949" stroke-linecap="round" stroke-linejoin="round"/>
<path d="M1462.39 723.669C1459.26 719.621 1455.47 716.122 1451.2 713.313C1445.33 709.991 1436.72 705.497 1436.72 705.497C1436.72 705.497 1433.38 697.056 1428.9 687.111C1423.88 691.292 1415.65 699.323 1412.49 709.073C1416.79 716.693 1425.03 730.957 1428.12 733.653C1432.24 737.385 1456.28 734.494 1458.76 734.494C1461.24 734.494 1462.39 723.669 1462.39 723.669Z" fill="white" stroke="#263238" stroke-width="0.918949" stroke-linecap="round" stroke-linejoin="round"/>
<path d="M1409.79 704.149L1409.38 681.796" stroke="#263238" stroke-width="0.918949" stroke-linecap="round" stroke-linejoin="round"/>
<path d="M1475.83 760.383C1471.18 762.05 1466.72 764.198 1462.51 766.792C1458.6 769.742 1458.07 772.224 1458.07 776.659C1458.07 781.095 1449.18 787.015 1453.64 787.015C1458.09 787.015 1461.45 785.53 1465.48 778.144C1469.5 770.758 1474.35 768.57 1474.35 768.57C1474.66 772.142 1475.31 775.676 1476.3 779.121C1477.68 782.063 1477.87 785.426 1476.81 788.5C1475.81 792.408 1480.72 791.47 1482.22 780.684C1483.02 773.801 1482 766.83 1479.27 760.461L1475.83 760.383Z" fill="white" stroke="#263238" stroke-width="0.918949" stroke-linecap="round" stroke-linejoin="round"/>
<path d="M1474.86 748.503C1474.86 748.503 1476.32 756.827 1475.83 758.722C1475.35 760.617 1468.43 765.913 1465.97 770.446C1464.98 772.29 1464.39 774.318 1464.22 776.401C1464.05 778.485 1464.31 780.582 1464.99 782.56C1465.97 785.589 1468.9 795.417 1470.4 792.779C1471.91 790.141 1472.36 787.093 1472.36 781.427C1472.36 775.76 1471.38 770.817 1474.31 768.55L1477.28 766.284C1478.71 769.589 1479.87 773.007 1480.74 776.503C1482.69 783.693 1479.25 789.751 1480.23 790.884C1481.21 792.017 1485.17 791.255 1485.66 788.227C1486.15 785.198 1488.12 781.798 1488.12 775.741C1488.09 772.046 1486.99 768.441 1484.94 765.365C1484.02 762.815 1483.27 760.203 1482.71 757.55C1481.83 752.977 1478.8 744.341 1474.86 748.503Z" fill="white" stroke="#263238" stroke-width="0.918949" stroke-linecap="round" stroke-linejoin="round"/>
<path d="M1490.14 735.216C1492.28 738.839 1494.24 742.569 1496 746.393C1497.23 749.715 1498.07 753.447 1496 754.209C1493.93 754.971 1492.27 749.246 1491.02 746.764C1489.77 744.283 1485.58 733.555 1490.14 735.216Z" fill="#FFC100" stroke="#263238" stroke-width="0.918949" stroke-linecap="round" stroke-linejoin="round"/>
<path d="M1490.14 735.216C1487.66 729.843 1473.57 721.539 1469.84 719.487C1467.24 718.022 1458.93 717.807 1454.2 717.787C1453.07 717.611 1451.92 717.611 1450.79 717.787C1450.79 717.787 1444.16 722.75 1444.57 728.143C1444.73 729.681 1445.38 731.125 1446.44 732.249C1447.5 733.373 1448.91 734.114 1450.43 734.357H1452.39C1452.07 736.367 1452.42 738.426 1453.38 740.219C1456.69 745.319 1458.7 751.147 1459.25 757.198C1459.25 762.591 1465.46 760.52 1466.28 756.378C1467.1 752.235 1465.05 744.791 1465.05 743.13C1465.05 741.469 1468.35 736.916 1468.35 736.916C1468.35 736.916 1477.48 746.432 1478.71 748.503C1479.94 750.574 1480.37 761.341 1483.69 762.181C1487.01 763.021 1486.99 756.319 1486.99 756.319C1487.68 756.376 1488.37 756.29 1489.02 756.066C1489.67 755.842 1490.27 755.486 1490.78 755.02C1491.28 754.553 1491.69 753.987 1491.96 753.356C1492.24 752.726 1492.38 752.045 1492.38 751.356C1493.07 745.872 1492.29 740.305 1490.14 735.216Z" fill="#FFC100" stroke="#263238" stroke-width="0.918949" stroke-linecap="round" stroke-linejoin="round"/>
<path d="M1481.03 736.467C1481.03 736.467 1487.23 740.18 1487.23 743.912C1487.23 747.644 1486.82 756.339 1486.82 756.339" stroke="#263238" stroke-width="0.918949" stroke-linecap="round" stroke-linejoin="round"/>
<path d="M1415.59 868.26C1415.59 874.122 1418.9 874.884 1406.06 882.758C1393.22 890.633 1373.76 885.24 1354.71 881.098C1335.66 876.955 1312.88 873.634 1304.18 873.634C1295.49 873.634 1274.72 876.858 1266.9 876.858C1259.08 876.858 1246.21 876.037 1247.87 871.895C1249.53 867.752 1270.63 861.109 1272.29 859.467C1273.95 857.826 1273.54 854.485 1277.69 848.271C1278.62 846.568 1280.14 845.256 1281.96 844.575C1283.78 843.894 1285.79 843.888 1287.61 844.559C1294.93 851.261 1304.02 855.717 1313.79 857.396C1329.43 859.878 1358.09 861.109 1369.29 861.109C1380.48 861.109 1394.55 866.091 1395.78 866.091" fill="#696969"/>
<path d="M1415.59 868.26C1415.59 874.122 1418.9 874.884 1406.06 882.758C1393.22 890.633 1373.76 885.24 1354.71 881.098C1335.66 876.955 1312.88 873.634 1304.18 873.634C1295.49 873.634 1274.72 876.858 1266.9 876.858C1259.08 876.858 1246.21 876.037 1247.87 871.895C1249.53 867.752 1270.63 861.109 1272.29 859.467C1273.95 857.826 1273.54 854.485 1277.69 848.271C1278.62 846.568 1280.14 845.256 1281.96 844.575C1283.78 843.894 1285.79 843.888 1287.61 844.559C1294.93 851.261 1304.02 855.717 1313.79 857.396C1329.43 859.878 1358.09 861.109 1369.29 861.109C1380.48 861.109 1394.55 866.091 1395.78 866.091" stroke="#263238" stroke-width="0.918949" stroke-linecap="round" stroke-linejoin="round"/>
<path d="M1313.79 857.396C1304.04 855.703 1294.98 851.247 1287.69 844.559C1285.86 843.888 1283.86 843.894 1282.04 844.575C1280.22 845.256 1278.7 846.568 1277.76 848.271C1273.62 854.485 1274.03 857.807 1272.37 859.467C1270.71 861.128 1249.59 867.752 1247.95 871.895C1246.31 876.037 1259.08 876.858 1266.9 876.858C1274.72 876.858 1295.49 873.536 1304.18 873.536C1308.7 873.662 1313.21 874.033 1317.68 874.65C1317.68 874.278 1317.53 873.907 1317.43 873.536C1316.22 868.377 1319.7 861.636 1321.63 858.432C1318.76 858.119 1316.08 857.768 1313.79 857.396Z" fill="white" stroke="#263238" stroke-width="0.918949" stroke-linecap="round" stroke-linejoin="round"/>
<path d="M1287.61 844.559C1285.79 843.888 1283.78 843.894 1281.96 844.575C1280.14 845.256 1278.62 846.568 1277.69 848.271C1273.54 854.485 1273.95 857.807 1272.29 859.467C1270.63 861.128 1249.51 867.752 1247.87 871.895C1247.26 873.36 1248.51 874.396 1250.7 875.138C1255.57 869.921 1271.02 865.583 1275.34 862.437C1279.66 859.292 1276.43 858.217 1280.99 852.003C1282.12 850.552 1283.53 849.342 1285.14 848.443C1286.75 847.544 1288.52 846.974 1290.35 846.767C1288.55 845.477 1287.61 844.559 1287.61 844.559Z" stroke="#263238" stroke-width="0.918949" stroke-linecap="round" stroke-linejoin="round"/>
<path d="M1325.71 668.958C1325.71 668.958 1308.73 675.582 1305.43 689.24C1302.13 702.898 1308.32 787.816 1308.32 789.887C1308.32 791.959 1319.5 794.03 1336.91 795.749C1354.32 797.469 1386.6 797.82 1386.6 797.82C1386.6 797.82 1400.69 804.014 1403.58 804.014C1406.47 804.014 1412.68 800.302 1412.68 800.302C1412.68 800.302 1411.86 804.014 1415.16 803.194C1418.47 802.373 1429.66 793.248 1429.66 791.607C1429.66 789.966 1422.22 782.072 1417.67 781.251C1413.11 780.43 1392.81 788.285 1390.74 788.285C1388.67 788.285 1352.64 780.469 1346.01 777.519C1340.75 775.382 1335.35 773.581 1329.86 772.126L1332.77 700.495" fill="white"/>
<path d="M1325.71 668.958C1325.71 668.958 1308.73 675.582 1305.43 689.24C1302.13 702.898 1308.32 787.816 1308.32 789.887C1308.32 791.959 1319.5 794.03 1336.91 795.749C1354.32 797.469 1386.6 797.82 1386.6 797.82C1386.6 797.82 1400.69 804.014 1403.58 804.014C1406.47 804.014 1412.68 800.302 1412.68 800.302C1412.68 800.302 1411.86 804.014 1415.16 803.194C1418.47 802.373 1429.66 793.248 1429.66 791.607C1429.66 789.966 1422.22 782.072 1417.67 781.251C1413.11 780.43 1392.81 788.285 1390.74 788.285C1388.67 788.285 1352.64 780.469 1346.01 777.519C1340.75 775.382 1335.35 773.581 1329.86 772.126L1332.77 700.495" stroke="#263238" stroke-width="0.918949" stroke-linecap="round" stroke-linejoin="round"/>
<path d="M1417.67 781.192C1413.09 780.352 1392.81 788.227 1390.74 788.227C1388.67 788.227 1352.64 780.411 1346.01 777.46C1340.75 775.324 1335.35 773.523 1329.86 772.068L1331.44 732.813L1305.08 731.797C1306.19 758.937 1308.32 788.676 1308.32 789.888C1308.32 791.959 1319.5 794.03 1336.91 795.749C1354.32 797.469 1386.6 797.821 1386.6 797.821C1386.6 797.821 1400.69 804.014 1403.58 804.014C1406.47 804.014 1412.68 800.302 1412.68 800.302C1412.68 800.302 1411.86 804.015 1415.16 803.194C1418.47 802.373 1429.66 793.248 1429.66 791.607C1429.66 789.966 1422.22 782.013 1417.67 781.192Z" fill="white" stroke="#263238" stroke-width="0.918949" stroke-linecap="round" stroke-linejoin="round"/>
<path d="M1429.66 791.549C1429.66 789.888 1422.22 782.014 1417.67 781.193C1413.11 780.373 1392.81 788.227 1390.74 788.227C1390.1 788.227 1386.15 787.465 1380.81 786.273C1378.86 788.227 1377 791.588 1377.63 797.528L1386.6 797.704C1386.6 797.704 1400.69 803.898 1403.58 803.898C1406.47 803.898 1412.68 800.185 1412.68 800.185C1412.68 800.185 1411.86 803.898 1415.16 803.077C1418.47 802.257 1429.66 793.19 1429.66 791.549Z" fill="#FFC100" stroke="#263238" stroke-width="0.918949" stroke-linecap="round" stroke-linejoin="round"/>
<path d="M1339.39 587.773C1339.39 587.773 1323.64 575.365 1317.43 579.507C1311.22 583.65 1285.13 616.769 1282.65 625.874C1280.17 634.98 1293.83 637.07 1288.86 644.515C1283.9 651.959 1274.36 654.871 1278.1 664.054C1281.83 673.238 1296.74 674 1300.04 676.071C1303.34 678.142 1308.73 686.017 1320.75 682.695C1332.77 679.373 1330.27 664.054 1339.39 661.983C1348.52 659.912 1347.68 647.504 1343.53 637.559C1339.39 627.613 1336.91 613.955 1341.87 607.742C1346.84 601.528 1339.39 587.773 1339.39 587.773Z" fill="#263238" stroke="#263238" stroke-width="0.918949" stroke-linecap="round" stroke-linejoin="round"/>
<path d="M1348.57 579.253C1348.57 579.253 1335.87 579.976 1329.88 595.842C1323.88 611.708 1329.88 635.351 1331.63 639.239C1333.39 643.128 1342.58 647.055 1348.22 643.811C1353.87 640.568 1361.63 628.297 1367.25 625.112C1372.88 621.927 1384.19 608.543 1384.19 608.543L1392.3 618.762C1392.3 618.762 1397.6 618.058 1399.71 607.839C1401.82 597.62 1394.08 586.678 1381.38 580.328C1368.68 573.978 1354.92 574.329 1348.57 579.253Z" fill="#263238" stroke="#263238" stroke-width="0.918949" stroke-linecap="round" stroke-linejoin="round"/>
<path d="M1346.84 650.728C1346.84 650.728 1347.25 663.155 1350.16 668.548C1353.07 673.941 1360.51 697.857 1370.03 698.776C1379.54 699.694 1379.13 665.226 1379.13 665.226C1379.13 665.226 1367.96 665.637 1361.33 658.603C1354.71 651.568 1347.68 647.465 1346.84 650.728Z" stroke="#263238" stroke-width="0.918949" stroke-linecap="round" stroke-linejoin="round"/>
<path d="M1385.6 598.304C1385.6 598.304 1370.79 615.596 1359.15 623.002C1347.5 630.407 1342.22 631.462 1342.22 631.462C1342.22 631.462 1346.8 630.759 1343.63 633.944C1340.47 637.129 1339.72 637.852 1337.98 634.999C1336.25 632.146 1329.17 629.352 1327.75 636.406C1327.14 639.35 1327.59 642.414 1329.02 645.059C1330.45 647.703 1332.77 649.759 1335.56 650.865C1338.57 652.133 1341.91 652.38 1345.08 651.568C1345.08 651.568 1346.13 663.566 1360.24 670.619C1374.35 677.673 1387.42 667.806 1391.29 660.4C1395.16 652.995 1393.77 619.485 1393.05 613.838C1392.32 608.191 1385.6 598.304 1385.6 598.304Z" fill="white" stroke="#263238" stroke-width="0.918949" stroke-linecap="round" stroke-linejoin="round"/>
<path d="M1382.05 631.677C1382.05 631.677 1381.21 638.301 1382.46 638.712C1383.71 639.122 1388.32 640.783 1386.6 643.284C1384.88 645.785 1382.46 647.426 1379.56 646.176" stroke="#263238" stroke-width="0.918949" stroke-linecap="round" stroke-linejoin="round"/>
<path d="M1363.4 651.979C1363.4 651.979 1366.73 657.352 1379.56 654.46" stroke="#263238" stroke-width="0.918949" stroke-linecap="round" stroke-linejoin="round"/>
<path d="M1370.87 634.373C1370.87 636.327 1369.93 637.89 1368.8 637.89C1367.66 637.89 1366.73 636.308 1366.73 634.373C1366.73 632.439 1367.64 630.856 1368.8 630.856C1369.95 630.856 1370.87 632.419 1370.87 634.373Z" fill="#263238"/>
<path d="M1388.67 632.302C1388.67 634.256 1387.75 635.82 1386.6 635.82C1385.45 635.82 1384.53 634.237 1384.53 632.302C1384.53 630.368 1385.45 628.785 1386.6 628.785C1387.75 628.785 1388.67 630.349 1388.67 632.302Z" fill="#263238"/>
<path d="M1362.64 627.926C1363.77 626.537 1365.24 625.466 1366.91 624.815C1368.58 624.164 1370.39 623.957 1372.16 624.213" stroke="#263238" stroke-width="0.918949" stroke-linecap="round" stroke-linejoin="round"/>
<path d="M1382.46 623.803C1382.46 623.803 1384.94 618.43 1390.27 622.162" stroke="#263238" stroke-width="0.918949" stroke-linecap="round" stroke-linejoin="round"/>
<path d="M1520.25 769.254C1520.25 769.254 1480.27 782.092 1469.45 786.039C1458.62 789.986 1423.06 790.474 1420.6 794.421C1418.13 798.368 1400.43 820.682 1396.97 833.5C1393.52 846.318 1398.11 881.039 1401.41 883.208C1414.68 891.981 1449.57 889.285 1464.35 888.718C1491.37 887.722 1517.53 897.472 1532.73 869.961C1537.66 861.07 1530.55 829.944 1529.57 819.588C1528.59 809.232 1525.11 791.959 1524.62 789.478C1524.14 786.996 1527.65 771.228 1520.25 769.254Z" fill="white" stroke="#263238" stroke-width="0.918949" stroke-linecap="round" stroke-linejoin="round"/>
<path d="M1470.25 819.411C1491.39 811.947 1509.42 790.102 1515.03 786.429C1520.64 782.755 1523.71 774.705 1523.71 774.705C1514.85 780.673 1505.24 785.43 1495.12 788.852" stroke="#263238" stroke-width="0.918949" stroke-linecap="round" stroke-linejoin="round"/>
<path d="M1523.12 778.261C1519.12 790.605 1512.06 801.732 1502.58 810.599" stroke="#263238" stroke-width="0.918949" stroke-linecap="round" stroke-linejoin="round"/>
<path d="M1428.57 795.671C1428.57 795.671 1434.78 798.778 1455.92 798.778" stroke="#263238" stroke-width="0.918949" stroke-linecap="round" stroke-linejoin="round"/>
<path d="M1426.07 796.297C1426.07 796.297 1431.05 818.063 1459.05 826.778" stroke="#263238" stroke-width="0.918949" stroke-linecap="round" stroke-linejoin="round"/>
<path d="M1421.1 803.781C1425.35 811.269 1431.06 817.827 1437.89 823.066" stroke="#263238" stroke-width="0.918949" stroke-linecap="round" stroke-linejoin="round"/>
<path d="M1028.4 699.771C1028.4 699.771 1039.44 731.249 1039.44 743.95C1039.44 756.65 1048.27 826.23 1049.37 833.968C1050.1 838.773 1051.6 843.43 1053.8 847.763C1061.34 854.733 1069.91 860.506 1079.2 864.879C1095.21 872.695 1094.66 870.409 1091.9 873.711C1089.15 877.013 1063.73 877.619 1052.14 876.486C1040.55 875.352 1028.95 879.241 1028.4 874.278C1027.85 869.315 1027.83 849.424 1027.83 840.592C1027.83 831.76 1004.64 788.148 1001.89 774.314C999.131 760.48 1000.23 738.987 1000.23 738.987L986.431 705.77L1028.4 699.771Z" fill="white" stroke="#263238" stroke-width="0.918949" stroke-linecap="round" stroke-linejoin="round"/>
<path d="M1050.01 853.293V861.109L1027.97 856.869C1027.97 864.333 1028.17 871.621 1028.48 874.454C1029.03 879.417 1040.61 875.548 1052.22 876.662C1063.83 877.776 1089.21 877.209 1091.98 873.888C1094.76 870.566 1095.29 872.793 1079.28 865.056C1069.99 860.674 1061.43 854.902 1053.88 847.939C1053.88 847.939 1050.01 848.31 1050.01 853.293Z" fill="#263238" stroke="#263238" stroke-width="0.918949" stroke-linecap="round" stroke-linejoin="round"/>
<path d="M983.109 703.093C983.109 703.093 984.712 737.697 979.201 751.688C951.592 822.362 950.498 848.877 950.498 848.877C950.498 848.877 978.146 869.842 984.223 872.168C990.3 874.493 993.602 875.47 989.733 878.225C985.864 880.98 951.084 880.433 945.007 880.433C938.931 880.433 924.022 876.017 922.381 873.262C920.74 870.507 926.289 848.408 926.289 848.408C926.289 848.408 929.063 793.189 929.063 780.489C929.063 767.788 942.858 742.954 942.858 738.518C942.858 734.083 940.103 700.983 940.103 700.983C940.103 700.983 973.183 709.17 983.109 703.093Z" fill="white" stroke="#263238" stroke-width="0.918949" stroke-linecap="round" stroke-linejoin="round"/>
<path d="M989.733 878.127C993.641 875.372 990.3 874.219 984.223 872.07C978.146 869.921 950.537 848.877 950.537 848.877C950.537 848.877 947.782 849.971 947.782 854.387C947.906 856.711 947.328 859.02 946.121 861.011C946.121 861.011 937.289 859.369 926.797 857.103C925.917 856.927 925.116 856.751 924.335 856.556C922.908 863.141 921.404 871.503 922.381 873.125C924.022 875.88 938.931 880.296 945.007 880.296C951.084 880.296 985.884 880.902 989.733 878.127Z" fill="#263238" stroke="#263238" stroke-width="0.918949" stroke-linecap="round" stroke-linejoin="round"/>
<path d="M1028.95 536.872L1049.37 566.689L1133.86 554.555V570.558C1133.86 570.558 1050.01 593.751 1046.61 590.996C1043.21 588.241 1015.13 574.974 1015.13 574.974L1028.95 536.872Z" fill="#B5B5B5" stroke="#263238" stroke-width="0.918949" stroke-linecap="round" stroke-linejoin="round"/>
<path d="M953.292 497.675C953.292 497.675 947.215 533.022 947.215 547.364V598.167C947.215 598.167 929.63 626.342 926.797 651.177C923.964 676.012 923.475 703.64 923.475 703.64C923.475 703.64 949.99 715.247 971.522 713.586C984.335 712.608 997.065 710.754 1009.62 708.037L1039.99 700.866L1017.34 598.167C1017.34 598.167 1028.4 568.858 1030.04 567.255C1031.68 565.653 1037.86 545.762 1035.57 530.795C1033.29 515.828 1025.08 484.975 1007.96 476.69C990.847 468.405 961.03 478.351 953.292 497.675Z" fill="#5E5E5E" stroke="#263238" stroke-width="0.918949" stroke-linecap="round" stroke-linejoin="round"/>
<path d="M978.459 598.616C977.262 607.623 973.474 616.088 967.556 622.982C957.786 634.256 949.736 636.425 949.736 636.425C949.736 636.425 945.007 682.323 946.825 700.221" stroke="#263238" stroke-width="0.918949" stroke-linecap="round" stroke-linejoin="round"/>
<path d="M983.579 600.14C982.598 608.607 979.87 616.777 975.567 624.135C968.65 635.409 954.074 639.414 954.074 639.414" stroke="#263238" stroke-width="0.918949" stroke-linecap="round" stroke-linejoin="round"/>
<path d="M1017.91 493.807C1015.02 483.94 1006.64 477.433 1002.53 474.756C989.773 471.61 972.969 476.065 962.183 485.542C961.987 486.714 961.851 487.77 961.577 488.844C961.03 491.052 952.745 539.08 952.745 539.08C952.745 539.08 954.699 539.471 957.747 540.018C954.699 555.552 958.119 581.461 958.119 581.461C958.119 581.461 974.434 586.717 987.057 586.19C999.679 585.662 1014.41 578.374 1014.41 578.374C1014.41 573.938 1018.1 551.683 1019.84 541.444H1020.66C1020.66 541.444 1021.76 507.055 1017.91 493.807Z" fill="white" stroke="#263238" stroke-width="0.918949" stroke-linecap="round" stroke-linejoin="round"/>
<path d="M994.95 536.227C994.95 536.227 975.411 555.766 965.485 558.834L994.95 536.227Z" fill="white"/>
<path d="M994.95 536.227C994.95 536.227 975.411 555.766 965.485 558.834" stroke="#263238" stroke-width="0.918949" stroke-linecap="round" stroke-linejoin="round"/>
<path d="M994.95 546.211C994.95 546.211 983.891 556.215 974.961 563.581L994.95 546.211Z" fill="white"/>
<path d="M994.95 546.211C994.95 546.211 983.891 556.215 974.961 563.581" stroke="#263238" stroke-width="0.918949" stroke-linecap="round" stroke-linejoin="round"/>
<path d="M1037.51 689.611C1027.74 694.826 1016.83 697.557 1005.76 697.564C1005.76 697.564 989.186 704.754 963.238 703.64C949.395 702.889 935.916 698.929 923.866 692.073C923.573 699.107 923.475 703.64 923.475 703.64C923.475 703.64 949.99 715.247 971.522 713.586C984.335 712.608 997.065 710.754 1009.62 708.037L1039.99 700.866L1037.51 689.611Z" fill="white" stroke="#263238" stroke-width="0.918949" stroke-linecap="round" stroke-linejoin="round"/>
<path d="M1006.3 709.17L1007.42 648.969" stroke="#263238" stroke-width="0.918949" stroke-linecap="round" stroke-linejoin="round"/>
<path d="M1060.97 420.925V435.267C1060.97 435.267 1068.14 440.797 1063.73 444.666C1061.95 446.455 1059.9 447.946 1057.65 449.081C1057.65 449.081 1054.9 461.782 1048.82 467.859C1042.74 473.936 1039.44 472.822 1030.61 466.745C1021.78 460.668 1016.25 456.819 1016.25 456.819C1016.25 456.819 1021.76 429.757 1025.63 420.925C1029.5 412.093 1041.65 410.98 1047.73 412.074C1053.8 413.168 1060.97 420.925 1060.97 420.925Z" fill="white" stroke="#263238" stroke-width="0.918949" stroke-linecap="round" stroke-linejoin="round"/>
<path d="M1054.94 434.192C1054.94 435.853 1054.19 437.201 1053.3 437.201C1052.4 437.201 1051.65 435.853 1051.65 434.192C1051.65 432.532 1052.38 431.164 1053.3 431.164C1054.21 431.164 1054.94 432.532 1054.94 434.192Z" fill="#263238"/>
<path d="M1049.72 427.06C1049.72 427.06 1052.75 422.136 1056.85 426.239" stroke="#263238" stroke-width="0.918949" stroke-linecap="round" stroke-linejoin="round"/>
<path d="M1045.62 450.117C1047.43 451.964 1049.89 453.041 1052.47 453.126" stroke="#263238" stroke-width="0.918949" stroke-linecap="round" stroke-linejoin="round"/>
<path d="M1036.33 416.274C1036.33 416.274 1024.73 444.098 1025.31 457.444C1025.9 470.789 1040.95 509.067 1034.6 521.826C1028.25 534.585 1014.84 543.906 1005.07 528.782C995.302 513.659 991.726 509.067 985.356 518.329C978.987 527.59 971.444 544.433 956.946 544.433C942.448 544.433 924.96 525.304 933.655 505.003C942.35 484.701 962.085 476.006 974.258 456.291C983.196 442.282 989.487 426.751 992.82 410.471L1037.47 412.21L1036.33 416.274Z" fill="#263238" stroke="#263238" stroke-width="0.918949" stroke-linecap="round" stroke-linejoin="round"/>
<path d="M991.648 419.166H1061.25C1061.25 419.166 1061.25 389.584 1055.39 384.953C1049.52 380.322 1003.78 381.475 998.565 384.953C993.348 388.431 989.44 415.688 991.648 419.166Z" fill="#FFC100" stroke="#263238" stroke-width="0.918949" stroke-linecap="round" stroke-linejoin="round"/>
<path d="M1039.01 418.853C1039.01 418.853 1055.25 425.223 1069.75 425.223C1084.25 425.223 1091.79 418.853 1091.79 418.853H1039.01Z" fill="#FFC100" stroke="#263238" stroke-width="0.918949" stroke-linecap="round" stroke-linejoin="round"/>
<path d="M1153.18 551.722C1153.18 551.722 1159.26 550.628 1159.26 555.044C1159.26 559.46 1152.09 558.952 1146.01 556.704C1139.93 554.457 1148.22 552.894 1153.18 551.722Z" fill="#B5B5B5" stroke="#263238" stroke-width="0.918949" stroke-linecap="round" stroke-linejoin="round"/>
<path d="M1154.29 557.31C1154.29 557.31 1160.37 556.197 1160.37 560.632C1160.37 565.067 1153.18 564.54 1147.12 562.273C1141.07 560.007 1149.33 558.424 1154.29 557.31Z" fill="#B5B5B5" stroke="#263238" stroke-width="0.918949" stroke-linecap="round" stroke-linejoin="round"/>
<path d="M1155.41 562.84C1155.41 562.84 1161.46 561.726 1161.46 566.142C1161.46 570.558 1154.29 570.05 1148.22 567.803C1142.14 565.556 1150.43 563.934 1155.41 562.84Z" fill="#B5B5B5" stroke="#263238" stroke-width="0.918949" stroke-linecap="round" stroke-linejoin="round"/>
<path d="M1154.31 568.486C1154.31 568.486 1160.39 567.373 1160.39 571.788C1160.39 576.204 1153.2 575.696 1147.14 573.449C1141.09 571.202 1149.35 569.58 1154.31 568.486Z" fill="#B5B5B5" stroke="#263238" stroke-width="0.918949" stroke-linecap="round" stroke-linejoin="round"/>
<path d="M1127.78 557.31C1127.78 557.31 1093.55 632.4 1093.55 637.421C1093.55 642.443 1093.55 655.632 1096.87 663.37C1100.19 671.107 1120.06 685.449 1128.89 687.11C1137.72 688.771 1175.28 679.939 1179.7 678.825C1184.11 677.712 1195.72 646.8 1195.15 640.724C1194.58 634.647 1180.24 611.414 1178.03 607.604C1175.83 603.794 1157.62 578.881 1155.41 574.387C1153.2 569.893 1146.56 558.385 1146.56 558.385L1127.78 557.31Z" fill="white" stroke="#263238" stroke-width="0.918949" stroke-linecap="round" stroke-linejoin="round"/>
<path d="M1133.86 570.558L1129.44 603.15" stroke="#263238" stroke-width="0.918949" stroke-linecap="round" stroke-linejoin="round"/>
<path d="M1141.59 566.689V609.773" stroke="#263238" stroke-width="0.918949" stroke-linecap="round" stroke-linejoin="round"/>
<path d="M1147.12 562.272L1162.58 610.866" stroke="#263238" stroke-width="0.918949" stroke-linecap="round" stroke-linejoin="round"/>
<path d="M1038.29 561.726C1038.29 561.726 1011.25 493.338 1004.06 489.938C996.865 486.538 975.391 487.242 977.599 512.643C979.807 538.044 1022.32 591.055 1027.83 591.602C1033.34 592.149 1120.06 563.446 1120.06 563.446C1120.06 563.446 1149.37 567.353 1151.54 563.993C1153.71 560.632 1154.29 548.537 1154.29 548.537C1154.29 548.537 1158.2 540.252 1154.29 537.497C1150.39 534.742 1132.8 536.383 1130.01 536.383C1127.21 536.383 1113.98 549.631 1113.98 549.631L1038.29 561.726Z" fill="white" stroke="#263238" stroke-width="0.918949" stroke-linecap="round" stroke-linejoin="round"/>
<path d="M1151.62 563.934C1153.83 560.632 1154.37 548.478 1154.37 548.478C1154.37 548.478 1158.28 540.194 1154.37 537.439C1150.46 534.683 1132.88 536.325 1130.08 536.325C1127.29 536.325 1114.06 549.572 1114.06 549.572L1099.7 551.878L1102.14 569.288C1112.75 565.829 1120.14 563.426 1120.14 563.426C1120.14 563.426 1149.33 567.353 1151.62 563.934Z" fill="#FFC100" stroke="#263238" stroke-width="0.918949" stroke-linecap="round" stroke-linejoin="round"/>
<path d="M1161.46 529.701L1192.94 546.27L1186.87 557.31L1161.46 529.701Z" fill="white" stroke="#263238" stroke-width="0.918949" stroke-linecap="round" stroke-linejoin="round"/>
<path d="M1135.52 535.23L1139.93 523.624C1139.93 523.624 1143.25 521.963 1155.41 525.285C1167.56 528.607 1191.28 562.273 1191.28 562.273C1191.28 562.273 1174.17 574.426 1171.41 574.973C1168.66 575.521 1158.71 545.664 1157.62 542.948C1156.74 540.982 1155.62 539.131 1154.29 537.438L1135.52 535.23Z" fill="white" stroke="#263238" stroke-width="0.918949" stroke-linecap="round" stroke-linejoin="round"/>
<path d="M1154.29 537.439L1144.52 531.088" stroke="#263238" stroke-width="0.918949" stroke-linecap="round" stroke-linejoin="round"/>
<path d="M1219.44 659.422H1080.16V877.678H1219.44V659.422Z" fill="#FFC100" stroke="#263238" stroke-width="0.918949" stroke-linecap="round" stroke-linejoin="round"/>
<path d="M1219.11 733.438H1080.49C1079.51 733.438 1078.56 733.047 1077.87 732.35C1077.17 731.654 1076.78 730.71 1076.78 729.725C1076.78 728.741 1077.17 727.796 1077.87 727.1C1078.56 726.404 1079.51 726.013 1080.49 726.013H1219.11C1220.09 726.013 1221.03 726.404 1221.73 727.1C1222.43 727.796 1222.82 728.741 1222.82 729.725C1222.82 730.71 1222.43 731.654 1221.73 732.35C1221.03 733.047 1220.09 733.438 1219.11 733.438Z" fill="#FFC100" stroke="#263238" stroke-width="0.918949" stroke-linecap="round" stroke-linejoin="round"/>
<path d="M1219.11 662.705H1080.49C1079.51 662.705 1078.56 662.314 1077.87 661.618C1077.17 660.922 1076.78 659.978 1076.78 658.993C1076.78 658.008 1077.17 657.064 1077.87 656.368C1078.56 655.672 1079.51 655.281 1080.49 655.281H1219.11C1220.09 655.281 1221.03 655.672 1221.73 656.368C1222.43 657.064 1222.82 658.008 1222.82 658.993C1222.82 659.978 1222.43 660.922 1221.73 661.618C1221.03 662.314 1220.09 662.705 1219.11 662.705Z" fill="#FFC100" stroke="#263238" stroke-width="0.918949" stroke-linecap="round" stroke-linejoin="round"/>
<path d="M1219.11 807.375H1080.49C1079.51 807.375 1078.56 806.984 1077.87 806.288C1077.17 805.592 1076.78 804.647 1076.78 803.663C1076.78 802.678 1077.17 801.734 1077.87 801.038C1078.56 800.341 1079.51 799.95 1080.49 799.95H1219.11C1220.09 799.95 1221.03 800.341 1221.73 801.038C1222.43 801.734 1222.82 802.678 1222.82 803.663C1222.82 804.647 1222.43 805.592 1221.73 806.288C1221.03 806.984 1220.09 807.375 1219.11 807.375Z" fill="#FFC100" stroke="#263238" stroke-width="0.918949" stroke-linecap="round" stroke-linejoin="round"/>
</g>
<defs>
<clipPath id="clip0_44_280">
<rect width="1920" height="1080" fill="white"/>
</clipPath>
<clipPath id="clip1_44_280">
<rect width="290" height="155" fill="white" transform="translate(84 100)"/>
</clipPath>
</defs>
</svg>
