<svg width="299" height="160" viewBox="0 0 299 160" fill="none" xmlns="http://www.w3.org/2000/svg">
<g clip-path="url(#clip0_2_42)">
<path d="M95.9174 52.865C94.3576 47.1589 91.6474 41.8303 87.9527 37.2052C84.258 32.5802 79.6565 28.756 74.4297 25.9665C69.2029 23.177 63.4607 21.4809 57.5543 20.9821C51.648 20.4832 45.7018 21.192 40.0794 23.0651C39.5946 23.2128 39.1444 23.456 38.7553 23.7803C38.3663 24.1045 38.0463 24.5033 37.8142 24.953C37.5822 25.4027 37.4428 25.8943 37.4044 26.3986C37.3659 26.903 37.4291 27.4099 37.5903 27.8895C37.7514 28.3691 38.0072 28.8116 38.3426 29.1909C38.678 29.5702 39.0862 29.8785 39.543 30.0978C39.9998 30.317 40.496 30.4427 41.0023 30.4674C41.5086 30.4922 42.0148 30.4154 42.4908 30.2416C47.1332 28.6981 52.0421 28.1152 56.9178 28.5285C61.7935 28.9418 66.5335 30.3426 70.8484 32.6454C75.1633 34.9481 78.9623 38.1045 82.0136 41.9216C85.0648 45.7388 87.3041 50.1366 88.5946 54.8463C88.8122 55.6488 89.2884 56.3576 89.9497 56.8631C90.6111 57.3687 91.4208 57.6431 92.2539 57.6438C92.5898 57.6436 92.9243 57.5998 93.2489 57.5134C93.7301 57.3832 94.1809 57.1597 94.5755 56.8556C94.9701 56.5515 95.3008 56.1728 95.5487 55.7411C95.7965 55.3094 95.9566 54.8332 96.0199 54.3397C96.0832 53.8462 96.0484 53.3451 95.9174 52.865Z" fill="#FFB600"/>
<path d="M34.4218 124.87H34.6411C35.6449 124.813 36.5848 124.36 37.2543 123.611C37.9238 122.863 38.2682 121.88 38.2118 120.878C37.5069 108.18 32.9786 95.989 25.2188 85.8998C25.1851 85.8493 25.1471 85.8031 25.1092 85.7568V85.7358C21.8844 81.4209 19.6726 76.438 18.6372 71.1555C17.6017 65.873 17.7691 60.4258 19.127 55.2165C19.2532 54.7354 19.2832 54.2341 19.2153 53.7414C19.1474 53.2486 18.9829 52.7741 18.7312 52.3448C18.4795 51.9155 18.1455 51.5398 17.7483 51.2394C17.3511 50.9389 16.8985 50.7194 16.4162 50.5934C15.934 50.4675 15.4317 50.4375 14.9379 50.5053C14.4441 50.573 13.9685 50.7372 13.5383 50.9884C13.108 51.2395 12.7316 51.5728 12.4305 51.9691C12.1293 52.3655 11.9093 52.8171 11.7831 53.2983C10.1397 59.6009 9.9347 66.1912 11.1831 72.5835C12.4315 78.9757 15.1015 85.0069 18.9963 90.2327L19.0258 90.2705L19.1649 90.4556C26.015 99.3489 30.0133 110.099 30.6361 121.299C30.691 122.264 31.1137 123.171 31.8176 123.835C32.5214 124.499 33.4532 124.87 34.4218 124.87Z" fill="#FFB600"/>
<path d="M71.3774 133.7C59.8129 136.06 47.8884 136.051 36.3274 133.675C35.8394 133.573 35.3361 133.569 34.8464 133.662C34.3566 133.754 33.89 133.942 33.473 134.215C33.0561 134.488 32.6971 134.84 32.4165 135.251C32.1359 135.662 31.9392 136.124 31.8376 136.611C31.736 137.098 31.7315 137.6 31.8244 138.089C31.9173 138.578 32.1058 139.043 32.379 139.459C32.6523 139.875 33.0049 140.233 33.4169 140.513C33.8289 140.793 34.2922 140.99 34.7802 141.091C47.3584 143.686 60.335 143.693 72.9161 141.112C73.4145 141.022 73.8899 140.834 74.3141 140.558C74.7384 140.282 75.103 139.924 75.3864 139.505C75.6698 139.086 75.8664 138.615 75.9644 138.119C76.0625 137.624 76.0601 137.113 75.9573 136.618C75.8546 136.124 75.6536 135.654 75.3663 135.238C75.0789 134.822 74.7109 134.468 74.2841 134.196C73.8573 133.924 73.3802 133.74 72.8809 133.654C72.3817 133.569 71.8705 133.585 71.3774 133.7Z" fill="#FFB600"/>
<path d="M64.1515 151.385C57.3563 152.777 50.3484 152.777 43.5532 151.385C43.0625 151.275 42.5548 151.265 42.0598 151.353C41.5648 151.441 41.0922 151.626 40.6697 151.898C40.2471 152.17 39.883 152.523 39.5984 152.937C39.3137 153.351 39.1144 153.817 39.0118 154.308C38.9093 154.799 38.9057 155.306 39.0011 155.798C39.0965 156.291 39.2891 156.76 39.5677 157.177C39.8463 157.595 40.2054 157.953 40.6239 158.231C41.0425 158.509 41.5123 158.702 42.006 158.797C49.8184 160.407 57.878 160.407 65.6903 158.797C66.6759 158.593 67.5401 158.007 68.0927 157.168C68.6453 156.329 68.8412 155.304 68.6371 154.321C68.4331 153.338 67.8458 152.475 67.0046 151.924C66.1634 151.372 65.1371 151.177 64.1515 151.381V151.385Z" fill="#FFB600"/>
<path d="M43.1063 35.8911C44.9191 37.5738 45.0372 41.3598 45.1088 45.1794C45.0372 48.9654 44.9191 52.7935 43.1063 54.4719C41.42 56.285 37.6258 56.4028 33.7937 56.4701C29.9995 56.4028 26.1673 56.285 24.481 54.4719C22.664 52.7893 22.546 49.0033 22.4785 45.1794C22.546 41.3934 22.664 37.5696 24.481 35.8911C26.1673 34.0781 29.9615 33.9603 33.7937 33.893C37.609 33.9603 41.42 34.0739 43.1063 35.8911Z" fill="#202124"/>
<path d="M26.6395 4.90916C27.7398 5.92717 27.8241 8.224 27.8494 10.5166C27.8241 12.8261 27.7398 15.1439 26.6395 16.1409C25.6235 17.2346 23.3175 17.3062 21.0114 17.3482C18.7096 17.3062 16.4036 17.2346 15.3876 16.1409C14.2873 15.1439 14.2156 12.8261 14.1777 10.5166C14.2156 8.21559 14.2873 5.91875 15.3876 4.90074C16.4036 3.80702 18.7096 3.7355 21.0114 3.69344C23.3175 3.74392 25.6235 3.81543 26.6395 4.90916Z" fill="#202124"/>
<path d="M12.4661 34.1748C13.5622 35.1886 13.6338 37.4897 13.676 39.7907C13.6338 42.0918 13.5622 44.3886 12.4661 45.4066C11.4458 46.5003 9.14403 46.5718 6.838 46.6139C4.53196 46.5718 2.22593 46.5003 1.20993 45.4066C0.113826 44.3886 0.0421578 42.0918 0 39.7907C0.0421578 37.4897 0.113826 35.1886 1.20993 34.1748C2.22593 33.0811 4.53196 33.0096 6.838 32.9675C9.14403 33.0096 11.4458 33.0811 12.4661 34.1748Z" fill="#202124"/>
<path d="M29.9995 22.3626C30.6361 22.9515 30.6782 24.285 30.7035 25.6185C30.7288 26.952 30.6361 28.2855 29.9995 28.8745C29.3629 29.4634 28.0729 29.5517 26.7365 29.577C25.4001 29.6022 24.0637 29.5097 23.4735 28.8745C22.8833 28.2393 22.7989 26.952 22.7652 25.6185C22.7315 24.285 22.8284 22.9515 23.465 22.3626C24.1016 21.7736 25.3916 21.6895 26.728 21.6643C28.0644 21.639 29.4093 21.7274 29.9995 22.3626Z" fill="#202124"/>
<path d="M11.5049 20.9449C12.1414 21.5339 12.1794 22.8674 12.2047 24.2009C12.23 25.5344 12.1414 26.8679 11.5049 27.4568C10.8683 28.0457 9.57825 28.1341 8.24185 28.1551C6.90545 28.1762 5.56905 28.092 4.97884 27.4568C4.38863 26.8216 4.3001 25.5344 4.2748 24.2009C4.24951 22.8674 4.34225 21.5339 4.97884 20.9449C5.61542 20.356 6.90545 20.2676 8.24185 20.2466C9.57825 20.2256 10.9147 20.3097 11.5049 20.9449Z" fill="#202124"/>
<path d="M42.5414 9.95294C43.178 10.5419 43.2202 11.8754 43.2455 13.2089C43.2708 14.5424 43.178 15.8759 42.5414 16.4648C41.9048 17.0538 40.6148 17.1421 39.2784 17.1673C37.942 17.1926 36.6056 17.1 36.0154 16.4648C35.4252 15.8296 35.3409 14.5424 35.3156 13.2089C35.2903 11.8754 35.3788 10.5419 36.0154 9.95294C36.652 9.364 37.942 9.27987 39.2784 9.25463C40.6148 9.22939 41.9512 9.31773 42.5414 9.95294Z" fill="#202124"/>
<path d="M10.2401 0.698313C10.8767 1.28724 10.9146 2.62075 10.961 3.95426C11.0074 5.28777 10.8978 6.62128 10.2612 7.21021C9.62462 7.79914 8.33459 7.88748 6.99819 7.91272C5.66179 7.93796 4.32538 7.84541 3.73518 7.21021C3.14497 6.57501 3.03536 5.28777 3.01006 3.95426C2.98477 2.62075 3.07751 1.28724 3.7141 0.698313C4.35068 0.109382 5.64071 0.0252485 6.97711 8.62079e-06C8.31351 -0.0252313 9.64991 0.0631084 10.2401 0.698313Z" fill="#202124"/>
<path d="M95.2345 77.4865C92.393 75.2205 88.7281 74.0875 84.2397 74.0875C79.6905 74.0448 75.2192 75.2669 71.3268 77.6169C70.85 77.9018 70.455 78.3048 70.1803 78.7868C69.9055 79.2689 69.7602 79.8135 69.7585 80.3681C69.7572 81.0255 69.9654 81.6663 70.3529 82.198C70.8107 82.8302 71.4848 83.273 72.2476 83.4428C73.0105 83.6126 73.8093 83.4974 74.4928 83.1192C77.4523 81.5291 80.319 80.7341 83.093 80.7341C88.7141 80.7341 91.5246 83.2581 91.5246 88.306V89.7363H81.1622C76.4321 89.7363 72.6843 90.6646 69.9187 92.5211C67.1532 94.3776 65.769 97.1821 65.7662 100.934C65.7662 104.678 67.066 107.668 69.6658 109.903C72.2655 112.138 75.5482 113.26 79.5138 113.268C84.8117 113.268 89.0359 111.387 92.1865 107.623V109.524C92.1865 109.941 92.2688 110.354 92.4288 110.739C92.5888 111.124 92.8234 111.474 93.119 111.769C93.4146 112.063 93.7655 112.297 94.1517 112.456C94.5378 112.615 94.9516 112.697 95.3694 112.696H96.3137C96.7315 112.697 97.1453 112.615 97.5314 112.456C97.9176 112.297 98.2685 112.063 98.5641 111.769C98.8597 111.474 99.0942 111.124 99.2543 110.739C99.4143 110.354 99.4966 109.941 99.4966 109.524V88.1672C99.4938 83.3099 98.0731 79.7497 95.2345 77.4865ZM91.474 98.5198C91.5092 99.6453 91.2661 100.762 90.7661 101.772C90.2662 102.781 89.5247 103.652 88.6073 104.308C86.6736 105.743 84.3174 106.496 81.9084 106.449C79.3536 106.449 77.361 105.961 75.9304 104.985C75.2351 104.522 74.6717 103.886 74.295 103.141C73.9183 102.396 73.741 101.566 73.7804 100.732C73.7804 97.1092 76.6696 95.2989 82.448 95.3017H91.4824L91.474 98.5198Z" fill="#202124"/>
<path d="M143.008 59.6503H141.347C140.503 59.6503 139.694 59.9844 139.098 60.5791C138.501 61.1738 138.165 61.9805 138.164 62.8221V80.5195C135.055 76.2344 130.96 74.0904 125.879 74.0876C123.446 74.0549 121.031 74.5057 118.774 75.4135C116.517 76.3213 114.464 77.668 112.734 79.3753C109.061 82.9061 107.224 87.6232 107.224 93.5265C107.224 99.4298 109.014 104.197 112.595 107.829C116.178 111.452 120.38 113.263 125.2 113.26C130.883 113.26 135.204 111.157 138.164 106.95V109.474C138.164 109.891 138.246 110.304 138.406 110.689C138.566 111.074 138.801 111.424 139.096 111.718C139.392 112.013 139.743 112.246 140.129 112.405C140.515 112.565 140.929 112.646 141.347 112.646H143.008C143.425 112.646 143.839 112.565 144.225 112.405C144.611 112.246 144.961 112.013 145.257 111.718C145.552 111.423 145.786 111.073 145.946 110.688C146.105 110.303 146.187 109.891 146.186 109.474V62.7801C146.175 61.9462 145.836 61.1502 145.241 60.5644C144.646 59.9786 143.844 59.6503 143.008 59.6503ZM134.998 102.714C133.984 103.824 132.746 104.706 131.365 105.304C129.984 105.901 128.493 106.2 126.988 106.18C125.453 106.191 123.933 105.892 122.517 105.301C121.102 104.711 119.82 103.841 118.75 102.743C116.412 100.458 115.241 97.4934 115.238 93.8504C115.236 90.2074 116.384 87.1702 118.683 84.7388C119.716 83.5814 120.985 82.6574 122.405 82.0285C123.825 81.3995 125.363 81.0801 126.916 81.0916C128.45 81.0723 129.969 81.3889 131.367 82.0191C132.765 82.6492 134.007 83.5776 135.006 84.7388C137.201 87.1674 138.302 90.192 138.307 93.8125C138.313 97.4331 137.214 100.4 135.01 102.714H134.998Z" fill="#202124"/>
<path d="M183.386 77.4865C180.545 75.2206 176.88 74.0876 172.392 74.0876C167.844 74.0431 163.373 75.2654 159.483 77.6169C159.006 77.9012 158.61 78.3041 158.335 78.7862C158.061 79.2684 157.916 79.8134 157.915 80.3681C157.914 81.0248 158.12 81.665 158.505 82.198C158.963 82.8305 159.638 83.2735 160.402 83.4432C161.165 83.613 161.965 83.4977 162.649 83.1192C165.603 81.5291 168.468 80.7341 171.245 80.7341C176.866 80.7341 179.684 83.2581 179.698 88.306V89.7363H169.314C164.584 89.7363 160.835 90.6646 158.066 92.5211C155.298 94.3776 153.914 97.1821 153.914 100.934C153.914 104.678 155.215 107.668 157.818 109.903C160.42 112.138 163.702 113.26 167.662 113.268C172.971 113.268 177.198 111.387 180.343 107.623V109.524C180.343 110.365 180.677 111.171 181.272 111.766C181.867 112.36 182.675 112.695 183.517 112.696H184.47C184.887 112.697 185.301 112.615 185.686 112.456C186.072 112.297 186.422 112.063 186.717 111.768C187.012 111.473 187.246 111.124 187.405 110.739C187.564 110.353 187.646 109.941 187.644 109.524V88.1672C187.644 83.3099 186.225 79.7497 183.386 77.4865ZM179.63 98.5198C179.665 99.6452 179.421 100.762 178.921 101.771C178.421 102.781 177.68 103.652 176.763 104.308C174.83 105.743 172.474 106.496 170.065 106.449C167.51 106.449 165.516 105.961 164.082 104.985C163.388 104.521 162.825 103.886 162.449 103.141C162.073 102.395 161.896 101.566 161.937 100.732C161.937 97.1092 164.826 95.2989 170.604 95.3017H179.63V98.5198Z" fill="#202124"/>
<path d="M205.477 59.9364C204.648 59.1316 203.565 58.6378 202.413 58.5386C201.26 58.4395 200.109 58.7412 199.154 59.3925C198.199 60.0437 197.499 61.0046 197.173 62.112C196.847 63.2195 196.915 64.4054 197.365 65.4686C197.815 66.5319 198.62 67.407 199.643 67.9456C200.666 68.4842 201.845 68.6532 202.978 68.4238C204.112 68.1945 205.131 67.581 205.863 66.6873C206.595 65.7935 206.995 64.6747 206.995 63.5205C207.001 62.8512 206.87 62.1878 206.609 61.5712C206.348 60.9547 205.963 60.3983 205.477 59.9364ZM202.653 74.6597H200.992C200.574 74.6586 200.161 74.7397 199.775 74.8984C199.389 75.0572 199.038 75.2904 198.743 75.5847C198.448 75.879 198.213 76.2286 198.054 76.6135C197.894 76.9983 197.812 77.4108 197.813 77.8273V109.503C197.812 109.92 197.894 110.333 198.054 110.718C198.213 111.103 198.447 111.453 198.743 111.747C199.038 112.042 199.389 112.276 199.774 112.435C200.16 112.594 200.574 112.676 200.992 112.675H202.653C203.07 112.676 203.484 112.594 203.87 112.435C204.256 112.276 204.606 112.042 204.901 111.747C205.197 111.453 205.431 111.103 205.59 110.718C205.75 110.333 205.832 109.92 205.831 109.503V77.8231C205.831 77.4073 205.748 76.9957 205.588 76.6118C205.428 76.228 205.193 75.8794 204.898 75.5859C204.603 75.2925 204.253 75.0601 203.867 74.9019C203.482 74.7436 203.069 74.6628 202.653 74.6639V74.6597Z" fill="#202124"/>
<path d="M249.772 59.6503H248.111C247.268 59.6503 246.46 59.9845 245.864 60.5793C245.268 61.1742 244.933 61.9809 244.933 62.8221V80.5195C241.841 76.2344 237.748 74.0904 232.652 74.0876C230.219 74.0538 227.803 74.5039 225.547 75.4118C223.29 76.3197 221.237 77.6671 219.507 79.3753C215.828 82.9061 213.99 87.6232 213.993 93.5265C213.996 99.4298 215.785 104.197 219.36 107.829C222.943 111.452 227.146 113.263 231.969 113.26C237.649 113.26 241.97 111.157 244.933 106.95V109.474C244.932 109.891 245.014 110.303 245.173 110.688C245.333 111.073 245.567 111.423 245.862 111.718C246.158 112.013 246.508 112.246 246.894 112.405C247.28 112.565 247.694 112.646 248.111 112.646H249.772C250.19 112.646 250.604 112.565 250.989 112.405C251.375 112.246 251.726 112.013 252.021 111.718C252.317 111.423 252.551 111.073 252.71 110.688C252.87 110.303 252.952 109.891 252.951 109.474V62.7801C252.94 61.9462 252.6 61.1502 252.005 60.5644C251.41 59.9786 250.608 59.6503 249.772 59.6503ZM241.762 102.714C240.748 103.822 239.509 104.704 238.129 105.302C236.748 105.899 235.257 106.199 233.752 106.18C232.217 106.191 230.696 105.893 229.279 105.302C227.863 104.711 226.581 103.841 225.511 102.743C223.169 100.458 222.002 97.4934 222.007 93.8504C222.013 90.2074 223.158 87.1702 225.443 84.7388C226.476 83.5814 227.745 82.6574 229.165 82.0285C230.585 81.3995 232.123 81.0801 233.676 81.0916C235.211 81.0723 236.732 81.3888 238.131 82.0189C239.53 82.649 240.774 83.5774 241.775 84.7388C243.967 87.1674 245.065 90.192 245.068 93.8125C245.07 97.4331 243.976 100.4 241.783 102.714H241.762Z" fill="#202124"/>
<path d="M293.557 78.7696C289.929 75.6538 285.526 74.0932 280.349 74.0876C275.334 74.029 270.494 75.9262 266.859 79.3753C263.039 82.9061 261.13 87.6582 261.13 93.6317C261.13 99.6051 263.003 104.373 266.749 107.934C270.499 111.485 275.047 113.26 280.396 113.26C285.657 113.26 290.127 111.907 293.806 109.2C294.162 108.934 294.457 108.596 294.673 108.209C294.889 107.821 295.022 107.393 295.061 106.951C295.101 106.509 295.048 106.064 294.904 105.644C294.76 105.225 294.53 104.84 294.228 104.514L293.95 104.207C293.418 103.641 292.694 103.293 291.919 103.23C291.145 103.168 290.374 103.396 289.759 103.871C287.46 105.553 284.523 106.395 280.948 106.395C278.075 106.435 275.266 105.55 272.938 103.871C271.833 103.123 270.916 102.131 270.258 100.971C269.6 99.8118 269.218 98.5166 269.144 97.1863H295.83C296.672 97.1852 297.48 96.8506 298.076 96.256C298.672 95.6615 299.007 94.8553 299.008 94.0145V91.6798C299.003 86.1943 297.186 81.8909 293.557 78.7696ZM269.135 90.8847C269.135 87.8363 270.305 85.4189 272.643 83.6324C274.9 81.8689 277.69 80.9226 280.556 80.9486C283.259 80.8702 285.896 81.7849 287.967 83.5189C289.974 85.2408 290.977 87.6961 290.977 90.8847H269.135Z" fill="#202124"/>
</g>
<defs>
<clipPath id="clip0_2_42">
<rect width="299" height="160" fill="white"/>
</clipPath>
</defs>
</svg>
