<svg width="24" height="24" viewBox="0 0 24 24" fill="none" xmlns="http://www.w3.org/2000/svg">
<g clip-path="url(#clip0_348_429)">
<path d="M21.4998 8.33139C21.4901 8.22045 21.4669 8.11108 21.4307 8.00568V7.89425C21.3693 7.77447 21.294 7.66227 21.2062 7.55996L14.0813 0.36C13.9752 0.266261 13.8559 0.188306 13.7272 0.128573H13.6063C13.498 0.0695781 13.3816 0.0262821 13.2609 2.26877e-06H6.06693C5.59692 -0.000529717 5.13158 0.0924994 4.69843 0.273586C4.26528 0.454673 3.87313 0.72014 3.54516 1.05428C2.87287 1.7333 2.4974 2.648 2.50018 3.59998V20.3999C2.49541 20.8757 2.58525 21.3477 2.76456 21.7889C2.94388 22.2302 3.20914 22.632 3.54516 22.9713C3.87529 23.3008 4.26842 23.5615 4.70147 23.7381C5.13452 23.9148 5.59876 24.0038 6.06693 23.9999H17.9417C18.4103 23.9997 18.8742 23.9064 19.3058 23.7253C19.7375 23.5442 20.1282 23.2791 20.4548 22.9456C20.7909 22.6063 21.0561 22.2045 21.2354 21.7632C21.4148 21.322 21.5046 20.8499 21.4998 20.3742V8.33139ZM14.375 4.0457L17.4494 7.19996H15.5667C15.4088 7.19998 15.2524 7.16883 15.1066 7.10831C14.9609 7.0478 14.8288 6.95914 14.7179 6.84748C14.607 6.73582 14.5195 6.60339 14.4607 6.45789C14.4018 6.3124 14.3727 6.15674 14.375 5.99997V4.0457ZM19.1249 20.3313C19.1272 20.4898 19.0978 20.6471 19.0385 20.7942C18.9792 20.9413 18.8912 21.0753 18.7794 21.1885C18.6667 21.3017 18.5321 21.3912 18.3837 21.4516C18.2353 21.512 18.0762 21.542 17.9158 21.5399H6.06693C5.90896 21.5399 5.75256 21.5088 5.60683 21.4482C5.46109 21.3877 5.32894 21.2991 5.21804 21.1874C5.10714 21.0757 5.01972 20.9433 4.96085 20.7978C4.90198 20.6523 4.87285 20.4967 4.87514 20.3399V3.59998C4.87285 3.44321 4.90198 3.28755 4.96085 3.14206C5.01972 2.99657 5.10714 2.86414 5.21804 2.75248C5.32894 2.64082 5.46109 2.55215 5.60683 2.49164C5.75256 2.43113 5.90896 2.39997 6.06693 2.39999H12V5.99997C11.9952 6.47573 12.0851 6.94775 12.2644 7.389C12.4437 7.83025 12.709 8.23205 13.045 8.57139C13.3729 8.90553 13.7651 9.171 14.1983 9.35208C14.6314 9.53317 15.0967 9.6262 15.5667 9.62567H19.1249V20.3313Z" fill="#BDBDBD"/>
<path fill-rule="evenodd" clip-rule="evenodd" d="M6.38647 11.7514C6.38647 11.1597 6.86979 10.68 7.466 10.68H16.534C17.1302 10.68 17.6135 11.1597 17.6135 11.7514C17.6135 12.3431 17.1302 12.8228 16.534 12.8228H7.466C6.86979 12.8228 6.38647 12.3431 6.38647 11.7514Z" fill="#BDBDBD"/>
<path fill-rule="evenodd" clip-rule="evenodd" d="M6.38647 15.0342C6.38647 14.4425 6.86979 13.9628 7.466 13.9628H16.534C17.1302 13.9628 17.6135 14.4425 17.6135 15.0342C17.6135 15.6259 17.1302 16.1056 16.534 16.1056H7.466C6.86979 16.1056 6.38647 15.6259 6.38647 15.0342Z" fill="#BDBDBD"/>
<path fill-rule="evenodd" clip-rule="evenodd" d="M6.38647 18.3513C6.38647 17.7596 6.86979 17.2799 7.466 17.2799H16.534C17.1302 17.2799 17.6135 17.7596 17.6135 18.3513C17.6135 18.943 17.1302 19.4227 16.534 19.4227H7.466C6.86979 19.4227 6.38647 18.943 6.38647 18.3513Z" fill="#BDBDBD"/>
</g>
<defs>
<clipPath id="clip0_348_429">
<rect width="24" height="24" fill="white"/>
</clipPath>
</defs>
</svg>
