<svg width="24" height="24" viewBox="0 0 24 24" fill="none" xmlns="http://www.w3.org/2000/svg">
<path d="M20.9998 8.33139C20.9901 8.22045 20.9669 8.11108 20.9307 8.00568V7.89425C20.8693 7.77447 20.794 7.66227 20.7062 7.55996L13.5813 0.36C13.4752 0.266261 13.3559 0.188306 13.2272 0.128573H13.1063C12.998 0.0695781 12.8816 0.0262821 12.7609 2.26877e-06H5.56693C5.09692 -0.000529717 4.63158 0.0924994 4.19843 0.273586C3.76528 0.454673 3.37313 0.72014 3.04516 1.05428C2.37287 1.7333 1.9974 2.648 2.00018 3.59998V20.3999C1.99541 20.8757 2.08525 21.3477 2.26456 21.7889C2.44388 22.2302 2.70914 22.632 3.04516 22.9713C3.37529 23.3008 3.76842 23.5615 4.20147 23.7381C4.63452 23.9148 5.09876 24.0038 5.56693 23.9999H17.4417C17.9103 23.9997 18.3742 23.9064 18.8058 23.7253C19.2375 23.5442 19.6282 23.2791 19.9548 22.9456C20.2909 22.6063 20.5561 22.2045 20.7354 21.7632C20.9148 21.322 21.0046 20.8499 20.9998 20.3742V8.33139ZM13.875 4.0457L16.9494 7.19996H15.0667C14.9088 7.19998 14.7524 7.16883 14.6066 7.10831C14.4609 7.0478 14.3288 6.95914 14.2179 6.84748C14.107 6.73582 14.0195 6.60339 13.9607 6.45789C13.9018 6.3124 13.8727 6.15674 13.875 5.99997V4.0457ZM18.6249 20.3313C18.6272 20.4898 18.5978 20.6471 18.5385 20.7942C18.4792 20.9413 18.3912 21.0753 18.2794 21.1885C18.1667 21.3017 18.0321 21.3912 17.8837 21.4516C17.7353 21.512 17.5762 21.542 17.4158 21.5399H5.56693C5.40896 21.5399 5.25256 21.5088 5.10683 21.4482C4.96109 21.3877 4.82894 21.2991 4.71804 21.1874C4.60714 21.0757 4.51972 20.9433 4.46085 20.7978C4.40198 20.6523 4.37285 20.4967 4.37514 20.3399V3.59998C4.37285 3.44321 4.40198 3.28755 4.46085 3.14206C4.51972 2.99657 4.60714 2.86414 4.71804 2.75248C4.82894 2.64082 4.96109 2.55215 5.10683 2.49164C5.25256 2.43113 5.40896 2.39997 5.56693 2.39999H11.5V5.99997C11.4952 6.47573 11.5851 6.94775 11.7644 7.389C11.9437 7.83025 12.209 8.23205 12.545 8.57139C12.8729 8.90553 13.2651 9.171 13.6983 9.35208C14.1314 9.53317 14.5967 9.6262 15.0667 9.62567H18.6249V20.3313Z" fill="#FFB600"/>
<path fill-rule="evenodd" clip-rule="evenodd" d="M5.88647 11.7514C5.88647 11.1597 6.36979 10.68 6.966 10.68H16.034C16.6302 10.68 17.1135 11.1597 17.1135 11.7514C17.1135 12.3431 16.6302 12.8228 16.034 12.8228H6.966C6.36979 12.8228 5.88647 12.3431 5.88647 11.7514Z" fill="#FFB600"/>
<path fill-rule="evenodd" clip-rule="evenodd" d="M5.88647 15.0342C5.88647 14.4425 6.36979 13.9628 6.966 13.9628H16.034C16.6302 13.9628 17.1135 14.4425 17.1135 15.0342C17.1135 15.6259 16.6302 16.1056 16.034 16.1056H6.966C6.36979 16.1056 5.88647 15.6259 5.88647 15.0342Z" fill="#FFB600"/>
<path fill-rule="evenodd" clip-rule="evenodd" d="M5.88647 18.3513C5.88647 17.7596 6.36979 17.2799 6.966 17.2799H16.034C16.6302 17.2799 17.1135 17.7596 17.1135 18.3513C17.1135 18.943 16.6302 19.4227 16.034 19.4227H6.966C6.36979 19.4227 5.88647 18.943 5.88647 18.3513Z" fill="#FFB600"/>
</svg>
