<svg width="24" height="24" viewBox="0 0 24 24" fill="none" xmlns="http://www.w3.org/2000/svg">
<g clip-path="url(#clip0_348_431)">
<path d="M21.5 8.328C21.4876 8.21776 21.4637 8.10916 21.4288 8.004V7.896C21.3717 7.77262 21.2955 7.6592 21.2031 7.56L14.0781 0.36C13.98 0.266659 13.8677 0.189697 13.7456 0.132H13.6269C13.5114 0.0696037 13.3873 0.0251064 13.2588 0H6.0625C5.11767 0 4.21153 0.379285 3.54343 1.05442C2.87533 1.72955 2.5 2.64522 2.5 3.6V20.4C2.5 21.3548 2.87533 22.2705 3.54343 22.9456C4.21153 23.6207 5.11767 24 6.0625 24H17.9375C18.8823 24 19.7885 23.6207 20.4566 22.9456C21.1247 22.2705 21.5 21.3548 21.5 20.4V8.4V8.328ZM14.375 4.092L17.4506 7.2H15.5625C15.2476 7.2 14.9455 7.07357 14.7228 6.84853C14.5001 6.62348 14.375 6.31826 14.375 6V4.092ZM19.125 20.4C19.125 20.7183 18.9999 21.0235 18.7772 21.2485C18.5545 21.4736 18.2524 21.6 17.9375 21.6H6.0625C5.74756 21.6 5.44551 21.4736 5.22281 21.2485C5.00011 21.0235 4.875 20.7183 4.875 20.4V3.6C4.875 3.28174 5.00011 2.97652 5.22281 2.75147C5.44551 2.52643 5.74756 2.4 6.0625 2.4H12V6C12 6.95478 12.3753 7.87045 13.0434 8.54558C13.7115 9.22072 14.6177 9.6 15.5625 9.6H19.125V20.4ZM12 11.208C11.2638 10.8028 10.4072 10.6809 9.58891 10.8647C8.77057 11.0486 8.04586 11.5258 7.54892 12.2081C7.05198 12.8903 6.81645 13.7314 6.88594 14.5756C6.95542 15.4199 7.32522 16.2101 7.92687 16.8L11.1569 20.064C11.2673 20.1765 11.3986 20.2657 11.5433 20.3267C11.688 20.3876 11.8432 20.419 12 20.419C12.1568 20.419 12.312 20.3876 12.4567 20.3267C12.6014 20.2657 12.7327 20.1765 12.8431 20.064L16.0731 16.8C16.6748 16.2101 17.0446 15.4199 17.1141 14.5756C17.1836 13.7314 16.948 12.8903 16.4511 12.2081C15.9541 11.5258 15.2294 11.0486 14.4111 10.8647C13.5928 10.6809 12.7362 10.8028 12 11.208ZM14.375 13.524C14.5795 13.731 14.6943 14.0115 14.6943 14.304C14.6943 14.5965 14.5795 14.877 14.375 15.084L12 17.484L9.625 15.084C9.42051 14.877 9.30565 14.5965 9.30565 14.304C9.30565 14.0115 9.42051 13.731 9.625 13.524C9.82983 13.3174 10.1074 13.2013 10.3969 13.2013C10.6863 13.2013 10.9639 13.3174 11.1688 13.524C11.2791 13.6365 11.4105 13.7257 11.5552 13.7867C11.6999 13.8476 11.8551 13.879 12.0119 13.879C12.1686 13.879 12.3239 13.8476 12.4686 13.7867C12.6133 13.7257 12.7446 13.6365 12.855 13.524C13.0588 13.3246 13.3313 13.2131 13.615 13.2131C13.8987 13.2131 14.1712 13.3246 14.375 13.524Z" fill="#BDBDBD"/>
</g>
<defs>
<clipPath id="clip0_348_431">
<rect width="24" height="24" fill="white"/>
</clipPath>
</defs>
</svg>
