<svg width="24" height="24" viewBox="0 0 24 24" fill="none" xmlns="http://www.w3.org/2000/svg">
<path fill-rule="evenodd" clip-rule="evenodd" d="M12 24C5.37258 24 0 18.6274 0 12C0 5.37258 5.37258 0 12 0C18.6274 0 24 5.37258 24 12C24 18.6274 18.6274 24 12 24ZM20.0723 17.5904C21.1731 16.0039 21.8182 14.0772 21.8182 11.9999C21.8182 6.5775 17.4225 2.18175 12 2.18175C6.57761 2.18175 2.18186 6.5775 2.18186 11.9999C2.18186 14.0773 2.82702 16.004 3.92791 17.5905C5.15369 15.9714 8.03153 15.2749 11.9812 15.2727C9.5474 15.2639 7.63628 13.5475 7.63628 9.81817C7.63628 7.36991 9.35894 5.45454 11.9999 5.45454C14.6336 5.45454 16.3636 7.5508 16.3636 10.0364C16.3636 13.6048 14.4298 15.264 12.0189 15.2727C15.9685 15.2749 18.8464 15.9713 20.0723 17.5904ZM18.507 19.3523C18.1877 18.2043 15.8939 17.4545 12.0001 17.4545C8.10621 17.4545 5.81243 18.2044 5.49319 19.3525C7.22553 20.8867 9.50401 21.8181 12 21.8181C14.4961 21.8181 16.7747 20.8866 18.507 19.3523ZM9.81814 9.81821C9.81814 12.2938 10.7107 13.0909 12 13.0909C13.2847 13.0909 14.1818 12.3255 14.1818 10.0364C14.1818 8.67321 13.3261 7.63639 12 7.63639C10.6186 7.63639 9.81814 8.52638 9.81814 9.81821Z" fill="#BDBDBD"/>
</svg>
