<svg width="24" height="24" viewBox="0 0 24 24" fill="none" xmlns="http://www.w3.org/2000/svg">
<path fill-rule="evenodd" clip-rule="evenodd" d="M12.068 7.35422C12.0481 7.37001 12.0282 7.38584 12.0082 7.40175C12.0002 7.39701 11.9928 7.39307 11.986 7.38944C11.9733 7.38266 11.9626 7.37695 11.9533 7.36908C11.5958 7.04994 11.1944 6.80152 10.7535 6.61371C10.2328 6.39197 9.68756 6.2895 9.12506 6.27006C9.05794 6.26769 8.99078 6.27317 8.92342 6.27867C8.87633 6.28251 8.82914 6.28636 8.78179 6.28754C8.56303 6.29295 8.3483 6.32699 8.13552 6.37438C7.16113 6.58788 6.29006 7.13028 5.66885 7.91031C5.42906 8.20944 5.23083 8.53959 5.07955 8.8918C4.89255 9.32423 4.77356 9.77495 4.74295 10.2423C4.70889 10.7629 4.74467 11.2795 4.89117 11.7874C5.09508 12.4943 5.44445 13.1174 5.96057 13.6365C7.71434 15.392 9.4688 17.1467 11.2239 18.9004C11.3252 19.0027 11.4456 19.0839 11.5784 19.1395C11.7111 19.1951 11.8536 19.224 11.9975 19.2245C12.1414 19.2249 12.284 19.197 12.4171 19.1422C12.5502 19.0874 12.6712 19.007 12.7731 18.9054C13.9453 17.7409 15.1174 16.5761 16.2893 15.4112C16.8356 14.8674 17.3811 14.3228 17.9258 13.7774C18.0258 13.6766 18.1222 13.5726 18.2162 13.4668C18.5161 13.1278 18.7591 12.7425 18.936 12.326C19.1358 11.8614 19.2457 11.3747 19.2802 10.8724C19.3019 10.559 19.286 10.2441 19.2329 9.93446C19.1512 9.45683 19.0044 9.00025 18.7715 8.57207C18.4937 8.06121 18.1347 7.6198 17.6841 7.25178C17.2395 6.88812 16.7442 6.62107 16.1934 6.45937C15.7023 6.31515 15.2026 6.24499 14.6882 6.28455C14.494 6.29799 14.3006 6.32199 14.109 6.35643C13.4281 6.48234 12.7893 6.77543 12.2499 7.20934C12.1897 7.25766 12.1291 7.30573 12.068 7.35422ZM12.0396 16.5739C12.0278 16.5847 12.0149 16.5963 12.0007 16.6094C11.9877 16.5976 11.9758 16.5869 11.9647 16.577C11.9432 16.5578 11.9246 16.5412 11.9069 16.5237C10.4536 15.0709 8.99978 13.6184 7.54552 12.1663C7.22757 11.8488 7.01364 11.4725 6.93308 11.0322C6.85426 10.6037 6.88119 10.1776 7.05978 9.77242C7.35737 9.09214 7.86705 8.65223 8.59099 8.48812C9.26856 8.33458 9.88825 8.48915 10.4365 8.91652C10.5286 8.98876 10.6124 9.0712 10.696 9.15328L10.7075 9.1646C10.7997 9.25512 10.8909 9.34662 10.9822 9.43812C11.0832 9.53938 11.1842 9.64064 11.2864 9.74056C11.4729 9.92285 11.7011 10.0069 11.96 10.0177C12.2983 10.0319 12.5776 9.90939 12.8115 9.66707C13.0059 9.4658 13.2051 9.26879 13.4052 9.07328C13.7317 8.75436 14.1172 8.54723 14.5701 8.47351C15.015 8.40117 15.4513 8.43947 15.8558 8.64062C16.5101 8.96586 16.9399 9.478 17.078 10.2093C17.2019 10.8647 17.0443 11.4521 16.6407 11.9769C16.5738 12.0606 16.5019 12.1403 16.4255 12.2154C16.307 12.3363 16.1868 12.4555 16.0667 12.5746C16.0317 12.6093 15.9967 12.644 15.9618 12.6788L12.0952 16.522C12.0782 16.539 12.0604 16.5551 12.0396 16.5739Z" fill="#FFB600"/>
<path fill-rule="evenodd" clip-rule="evenodd" d="M12.1496 0.00960838C12.1009 0.0103246 12.0521 0.0110408 12.0034 0.0110408L12.0028 0C11.9328 0.00324738 11.8628 0.00609614 11.7928 0.00894482C11.6371 0.015277 11.4815 0.0216088 11.3262 0.0323174C11.052 0.0512938 10.7776 0.0724554 10.5046 0.102703C10.2735 0.128465 10.0417 0.158022 9.81411 0.20483C9.46681 0.275905 9.1202 0.357446 8.77635 0.446348C8.15206 0.60759 7.55067 0.834732 6.96677 1.10638C6.35832 1.38865 5.77451 1.72118 5.22141 2.10052C4.71997 2.4456 4.24486 2.8274 3.79998 3.24278C3.63113 3.39992 3.47215 3.56777 3.31318 3.7356C3.26121 3.79047 3.20925 3.84534 3.15694 3.89982C2.89168 4.1763 2.65002 4.4728 2.41895 4.77803C2.05957 5.25198 1.73563 5.74882 1.45795 6.27395C1.28257 6.60551 1.12399 6.9464 0.970252 7.28855C0.723528 7.83749 0.539176 8.40885 0.3867 8.99068C0.216847 9.63841 0.109365 10.2971 0.0467636 10.9627C0.0190301 11.2592 0.00901849 11.5578 0.000732985 11.8558C-0.00194005 11.953 0.0031805 12.0502 0.00831011 12.1475C0.0122347 12.222 0.0161646 12.2966 0.0166135 12.3714C0.0172325 12.6352 0.0330241 12.8988 0.06391 13.1608C0.0738858 13.2429 0.0819819 13.3251 0.0900772 13.4074C0.103647 13.5453 0.117214 13.6832 0.13963 13.8201C0.208791 14.242 0.295329 14.6605 0.403616 15.0745C0.584214 15.7632 0.826468 16.4342 1.12745 17.0795C1.36626 17.5983 1.64549 18.0975 1.96256 18.5726C2.09049 18.7629 2.22546 18.9484 2.36042 19.1339C2.39882 19.1867 2.43722 19.2394 2.47545 19.2923C2.54105 19.3831 2.54243 19.3883 2.48915 19.4853C2.32493 19.7847 2.14208 20.0708 1.91848 20.3305C1.66647 20.6232 1.39005 20.8846 1.03918 21.0571C0.969742 21.0895 0.903576 21.1285 0.841597 21.1735C0.340554 21.5551 0.116155 22.0582 0.22962 22.6816C0.331233 23.2387 0.659546 23.6237 1.19626 23.8253C1.44425 23.9183 1.70467 23.9396 1.9621 23.9511C2.23165 23.9629 2.50237 23.9524 2.77272 23.9419C2.83165 23.9396 2.89057 23.9373 2.94945 23.9352C3.22449 23.9253 3.49515 23.8743 3.76535 23.8218C4.41921 23.695 5.04396 23.4806 5.64236 23.1914C5.85172 23.0901 6.05374 22.9735 6.2557 22.857C6.3226 22.8184 6.38949 22.7798 6.45664 22.7418C6.52189 22.7049 6.57413 22.7003 6.64629 22.7348C6.89769 22.8573 7.15193 22.9733 7.40901 23.0829C7.88053 23.285 8.36699 23.4503 8.86404 23.5774C9.21548 23.6667 9.57072 23.7424 9.92631 23.8144C10.1317 23.8561 10.3404 23.8839 10.5488 23.9083C10.7497 23.9318 10.952 23.9462 11.1539 23.9585C11.4363 23.9757 11.719 23.9915 12.0017 23.9993C12.1061 24.0023 12.2109 23.9953 12.3157 23.9884C12.3524 23.986 12.389 23.9836 12.4257 23.9816C12.5084 23.977 12.5913 23.9733 12.6742 23.9696C12.8817 23.9602 13.0894 23.9509 13.2956 23.929C13.6103 23.8959 13.9248 23.8485 14.2355 23.791C15.26 23.6003 16.2549 23.2758 17.1948 22.8259C17.6407 22.6123 18.0723 22.3703 18.4871 22.1013C18.8765 21.85 19.2549 21.5828 19.6068 21.2806L19.6365 21.2551C19.8732 21.0516 20.1102 20.848 20.3376 20.6344C20.6489 20.3445 20.9391 20.0328 21.2059 19.7017L21.2164 19.6885C21.4278 19.424 21.6394 19.1591 21.8364 18.8839C22.0906 18.529 22.3224 18.1585 22.5303 17.7746C22.7634 17.3477 22.972 16.9079 23.1552 16.4573C23.3318 16.021 23.4801 15.5738 23.5992 15.1184C23.6816 14.8008 23.7557 14.4803 23.8143 14.1574C23.8649 13.8781 23.897 13.5952 23.9291 13.3128C23.9315 13.2921 23.9338 13.2713 23.9362 13.2506C23.9392 13.2237 23.9423 13.1968 23.9454 13.1698C23.9702 12.954 23.9951 12.7374 23.9982 12.5209C24.004 12.123 23.9953 11.7245 23.9797 11.3268C23.9688 11.0565 23.941 10.7863 23.9112 10.5172C23.8855 10.2865 23.8541 10.055 23.8113 9.82644C23.7277 9.37566 23.6189 8.92991 23.4853 8.49131C23.2685 7.78089 22.9854 7.09238 22.6397 6.43484C22.3832 5.94677 22.0933 5.47688 21.7723 5.02852C21.4777 4.61759 21.1616 4.22334 20.8145 3.85601C20.5121 3.53594 20.1983 3.22645 19.8633 2.93893C19.5248 2.64589 19.171 2.37094 18.8034 2.11524C18.2986 1.76665 17.7715 1.45509 17.2154 1.19448C17.1995 1.18704 17.1836 1.17959 17.1677 1.17214C16.9755 1.0821 16.7832 0.991976 16.5874 0.910292C16.1455 0.725934 15.6949 0.564347 15.2309 0.445313C14.8724 0.353306 14.5111 0.26728 14.1474 0.198275C13.8583 0.143036 13.5645 0.110355 13.2715 0.0777813L13.263 0.0768257C13.0013 0.0472685 12.7382 0.0280621 12.4753 0.0127659C12.367 0.00641316 12.2583 0.00801073 12.1496 0.00960838ZM3.75176 21.5862C3.74305 21.5866 3.73433 21.5871 3.72576 21.588L3.71333 21.5972L3.723 21.5868C3.74196 21.5576 3.76102 21.5286 3.78008 21.4995C3.82337 21.4335 3.86666 21.3675 3.90885 21.3008C3.95467 21.2284 4.00145 21.1564 4.04822 21.0845C4.16215 20.9092 4.27607 20.734 4.37617 20.5512C4.53958 20.2528 4.69666 19.9483 4.82324 19.633C4.987 19.2246 4.92129 18.8372 4.62761 18.4987C4.20528 18.0118 3.81897 17.4996 3.50332 16.936C3.3673 16.6923 3.23289 16.4467 3.11206 16.1948C2.86821 15.6869 2.67638 15.159 2.52597 14.6155C2.42209 14.2363 2.34036 13.8513 2.2812 13.4626C2.24282 13.2175 2.218 12.9704 2.20686 12.7226C2.18995 12.3288 2.18086 11.9342 2.1865 11.5403C2.18995 11.2968 2.21872 11.0525 2.25059 10.811C2.28845 10.5239 2.33402 10.2373 2.39007 9.95318C2.49398 9.4269 2.65221 8.91581 2.84577 8.41563C2.9765 8.0761 3.12725 7.7446 3.29721 7.42288C3.5654 6.91497 3.87728 6.43134 4.22933 5.97745C4.53808 5.58067 4.86916 5.20402 5.23833 4.86348C5.49667 4.62507 5.7686 4.40069 6.04213 4.17964C6.33121 3.94617 6.64203 3.74249 6.96114 3.55215C7.37244 3.30659 7.80113 3.09133 8.24378 2.90811C8.68194 2.72531 9.13362 2.57678 9.59478 2.46383C9.85164 2.40154 10.1124 2.3548 10.3728 2.30812C10.413 2.30092 10.4531 2.29373 10.4932 2.28648C10.7862 2.2315 11.0831 2.2002 11.3811 2.19287C11.4948 2.19083 11.6086 2.18692 11.7224 2.18301C11.9803 2.17416 12.2382 2.1653 12.495 2.17815C13.2869 2.21771 14.066 2.34525 14.8272 2.57527C15.2814 2.71306 15.7257 2.8816 16.157 3.0797C16.8185 3.38252 17.4302 3.76641 18.0078 4.2054C18.3953 4.50028 18.7504 4.83231 19.0895 5.18205C20.1156 6.24293 20.8877 7.52256 21.3475 8.92466C21.506 9.40402 21.6304 9.8928 21.7029 10.3931C21.7293 10.5755 21.7503 10.7587 21.7712 10.9419C21.7793 11.0125 21.7874 11.0831 21.7958 11.1536C21.837 11.5033 21.8508 11.8557 21.8368 12.2075C21.8262 12.483 21.8021 12.7582 21.778 13.033C21.7761 13.0547 21.7742 13.0764 21.7723 13.0981C21.732 13.5593 21.6431 14.0123 21.5272 14.4599C21.3957 14.9753 21.2215 15.4789 21.0063 15.9654C20.7638 16.509 20.4833 17.0308 20.1458 17.5211C19.9309 17.8332 19.7078 18.1395 19.4519 18.4198C19.4122 18.4632 19.3727 18.5067 19.3332 18.5503C19.1669 18.7337 19.0004 18.9173 18.822 19.0883C18.2559 19.6328 17.6268 20.1077 16.9479 20.5029C16.3255 20.8659 15.6646 21.1588 14.9775 21.3761C14.518 21.5207 14.0509 21.6387 13.5724 21.703C13.3476 21.7332 13.1219 21.7566 12.8962 21.7801C12.8448 21.7854 12.7935 21.7908 12.7421 21.7962C12.2947 21.8435 11.8453 21.8285 11.3981 21.8108C11.0407 21.7965 10.6842 21.7481 10.33 21.6859C9.80243 21.5942 9.28297 21.4609 8.77647 21.2872C8.23321 21.0991 7.70793 20.8627 7.20694 20.5809C7.18636 20.5693 7.16586 20.5576 7.14536 20.5459C7.01675 20.4723 6.88825 20.3989 6.74065 20.3624C6.40186 20.2783 6.09093 20.3425 5.81831 20.5495C5.45252 20.8281 5.0589 21.0682 4.64372 21.266C4.37318 21.3942 4.08998 21.4888 3.80528 21.5789C3.78836 21.5843 3.77006 21.5853 3.75176 21.5862Z" fill="#FFB600"/>
</svg>
